<svg width="476" height="489" viewBox="0 0 476 489" fill="none" xmlns="http://www.w3.org/2000/svg">
<g id="rider">
<g id="wheel two">
<path id="Path 86" d="M402.871 332.147C396.999 332.14 391.153 332.929 385.493 334.492C382.574 335.297 379.715 336.308 376.939 337.518C362.15 343.928 350.263 355.594 343.579 370.26C336.896 384.925 335.89 401.548 340.756 416.913C345.622 432.277 356.015 445.291 369.924 453.437C383.833 461.583 400.269 464.282 416.053 461.012C431.837 457.742 445.847 448.736 455.374 435.735C464.9 422.734 469.264 406.662 467.624 390.629C465.983 374.597 458.453 359.742 446.491 348.939C434.529 338.136 418.985 332.153 402.865 332.147H402.871ZM402.653 446.149C391.432 446.144 380.551 442.302 371.815 435.261C363.08 428.219 357.017 418.402 354.632 407.44C352.248 396.478 353.686 385.03 358.707 374.997C363.729 364.965 372.031 356.951 382.237 352.288C384.833 351.1 387.529 350.143 390.293 349.428C397.05 347.674 404.103 347.379 410.984 348.562C417.864 349.746 424.413 352.381 430.195 356.292C435.977 360.203 440.86 365.301 444.518 371.246C448.176 377.191 450.526 383.847 451.41 390.771C452.295 397.694 451.695 404.727 449.649 411.401C447.604 418.074 444.16 424.236 439.547 429.475C434.934 434.714 429.258 438.911 422.897 441.786C416.535 444.661 409.634 446.148 402.653 446.149Z" fill="#535461"/>
<path id="Ellipse 15" d="M402.211 437.197C424.016 437.197 441.692 419.524 441.692 397.723C441.692 375.922 424.016 358.249 402.211 358.249C380.406 358.249 362.729 375.922 362.729 397.723C362.729 419.524 380.406 437.197 402.211 437.197Z" fill="#3F3D56"/>
</g>
<g id="support on bag">
<path id="Rectangle 40" d="M105.996 284.248L41.298 245.381C39.6361 244.383 37.4793 244.921 36.4807 246.582L35.1246 248.839C34.126 250.5 34.6638 252.657 36.3257 253.655L101.023 292.522C102.685 293.521 104.842 292.983 105.841 291.321L107.197 289.065C108.195 287.403 107.658 285.247 105.996 284.248Z" fill="#535461"/>
<path id="Rectangle 39" d="M160.808 244.738H37.936C35.9971 244.738 34.4253 246.31 34.4253 248.248V250.88C34.4253 252.819 35.9971 254.39 37.936 254.39H160.808C162.747 254.39 164.319 252.819 164.319 250.88V248.248C164.319 246.31 162.747 244.738 160.808 244.738Z" fill="#535461"/>
</g>
<g id="wheel one">
<path id="Path 123" d="M159.759 332.147C153.887 332.14 148.042 332.929 142.382 334.492C139.462 335.297 136.604 336.308 133.828 337.518C119.038 343.928 107.152 355.594 100.468 370.26C93.7843 384.925 92.7783 401.548 97.6446 416.913C102.511 432.277 112.904 445.291 126.813 453.437C140.721 461.583 157.158 464.282 172.942 461.012C188.726 457.742 202.736 448.736 212.262 435.735C221.788 422.734 226.153 406.662 224.512 390.629C222.872 374.597 215.342 359.742 203.38 348.939C191.418 338.136 175.873 332.153 159.754 332.147H159.759ZM159.542 446.149C148.321 446.144 137.439 442.302 128.704 435.261C119.969 428.219 113.906 418.402 111.521 407.44C109.137 396.478 110.575 385.03 115.596 374.997C120.617 364.965 128.92 356.951 139.125 352.288C141.722 351.1 144.417 350.143 147.182 349.428C153.939 347.674 160.992 347.379 167.872 348.562C174.752 349.746 181.301 352.381 187.084 356.292C192.866 360.203 197.749 365.301 201.407 371.246C205.065 377.191 207.414 383.847 208.299 390.771C209.184 397.694 208.584 404.727 206.538 411.401C204.492 418.074 201.049 424.236 196.436 429.475C191.823 434.714 186.147 438.911 179.785 441.786C173.424 444.661 166.523 446.148 159.542 446.149Z" fill="#535461"/>
<path id="Ellipse 16" d="M159.977 437.197C181.782 437.197 199.458 419.524 199.458 397.723C199.458 375.922 181.782 358.249 159.977 358.249C138.172 358.249 120.495 375.922 120.495 397.723C120.495 419.524 138.172 437.197 159.977 437.197Z" fill="#3F3D56"/>
</g>
<path id="Intersection 2" d="M210.835 398.299H94.9837C95.1347 370.169 121.011 347.405 152.909 347.405C184.808 347.405 210.682 370.169 210.835 398.299Z" fill="#F1961E"/>
<g id="phone in motor">
<path id="Path 24" d="M415.748 165.31L398.593 164.081C398.363 164.065 398.141 163.994 397.945 163.875C397.748 163.756 397.583 163.591 397.463 163.395C397.343 163.199 397.271 162.977 397.254 162.748C397.237 162.518 397.275 162.288 397.364 162.076L422.284 103.25C422.377 103.029 422.525 102.834 422.713 102.684C422.901 102.534 423.124 102.433 423.36 102.391L440.282 99.3698C440.534 99.3248 440.795 99.3479 441.036 99.4368C441.277 99.5257 441.49 99.6772 441.653 99.8757C441.816 100.074 441.923 100.313 441.963 100.566C442.003 100.82 441.975 101.08 441.882 101.319L417.197 164.391C417.085 164.679 416.884 164.923 416.624 165.088C416.363 165.254 416.056 165.331 415.748 165.31V165.31Z" fill="#3F3D56"/>
<path id="Path 25" d="M400.913 159.606L414.642 161.051L437.042 104.701L422.591 106.868L400.913 159.606Z" fill="#FDBD10"/>
<path id="Path 30" d="M405.61 182.725C400.444 182.715 395.353 181.492 390.745 179.156C386.138 176.82 382.143 173.436 379.082 169.275L381.995 167.139C384.33 170.334 387.289 173.022 390.693 175.041C394.097 177.059 397.875 178.367 401.799 178.884C405.723 179.401 409.711 179.117 413.522 178.049C417.333 176.981 420.888 175.152 423.971 172.671C427.055 170.19 429.603 167.109 431.461 163.616C433.32 160.122 434.451 156.288 434.785 152.345C435.119 148.402 434.649 144.432 433.405 140.676C432.161 136.919 430.167 133.454 427.545 130.49L430.254 128.098C434.442 132.842 437.172 138.693 438.116 144.949C439.06 151.206 438.178 157.602 435.575 163.37C432.973 169.138 428.761 174.032 423.445 177.465C418.129 180.898 411.935 182.724 405.606 182.725L405.61 182.725Z" fill="#3F3D56"/>
</g>
<g id="legs">
<path id="Path 131" d="M217.839 215.256C217.839 215.256 199.708 262.627 274.531 254.661C279.347 254.148 281.577 255.464 285.902 256.057C291.989 256.893 299.645 257.471 304.298 258.315C313.51 259.986 318.83 259.802 323.746 260.703C337.655 263.25 330.894 261.58 330.894 261.58L281.58 349.469C281.58 349.469 286.521 354.477 292.49 354.464C298.458 354.451 357.901 266.925 357.901 266.925C357.901 266.925 382.072 242.867 357.233 234.596C332.395 226.324 296.395 224.578 289.123 222.119C281.851 219.66 270.719 215.253 270.719 215.253L217.839 215.256Z" fill="#666484"/>
<path id="Path 130" d="M212.623 211.393C212.623 211.393 198.184 273.473 271.477 256.449C276.196 255.353 278.569 256.388 282.934 256.449C289.078 256.537 296.747 256.178 301.468 256.449C310.816 256.985 316.073 256.154 321.062 256.449C335.178 257.283 328.264 256.449 328.264 256.449L290.031 349.696C290.031 349.696 295.546 354.064 301.469 353.324C307.391 352.585 355.722 258.467 355.722 258.467C355.722 258.467 376.78 231.644 351.119 226.461C325.457 221.277 290.452 216.896 282.935 215.343C275.418 213.79 276.563 207.594 276.563 207.594L212.623 211.393Z" fill="#727092"/>
<path id="Path 37" d="M291.168 365.618C301.969 370.725 314.437 372.648 327.717 373.022C328.718 373.05 329.703 372.766 330.536 372.211C331.369 371.655 332.009 370.855 332.368 369.92V369.92C332.804 368.787 332.798 367.53 332.35 366.401C331.902 365.272 331.045 364.353 329.95 363.826L319.612 358.861L309.164 344.348C301.172 352.729 294.383 353.985 289.434 344.348L286.348 354.974C285.754 357.032 285.912 359.235 286.796 361.186C287.679 363.138 289.229 364.711 291.168 365.623V365.618Z" fill="#2F2E41"/>
<path id="Path 132" d="M284.146 365.618C294.948 370.725 307.416 372.648 320.695 373.022C321.697 373.05 322.682 372.766 323.515 372.211C324.348 371.655 324.988 370.855 325.347 369.92V369.92C325.783 368.787 325.776 367.53 325.328 366.401C324.88 365.272 324.024 364.353 322.929 363.826L312.591 358.861L302.143 344.348C294.151 352.729 287.362 353.985 282.413 344.348L279.327 354.974C278.733 357.032 278.891 359.235 279.774 361.186C280.658 363.138 282.208 364.711 284.146 365.623V365.618Z" fill="#2F2E41"/>
</g>
<g id="body">
<path id="Path 8" d="M360.232 169.815L365.713 153.67L310.247 127.147L275.944 93.2733C273.683 91.0413 270.713 89.6709 267.548 89.3999C264.383 89.129 261.223 89.9746 258.617 91.7901V91.7901C256.912 92.9774 255.502 94.5395 254.495 96.3566C253.488 98.1736 252.911 100.197 252.809 102.272C252.706 104.347 253.08 106.417 253.902 108.325C254.725 110.233 255.973 111.927 257.552 113.277L298.662 148.429L360.232 169.815Z" fill="#E6E6E6"/>
<path id="Ellipse 3" d="M293.285 71.9409C305.492 67.0039 311.384 53.1066 306.445 40.9005C301.506 28.6944 287.607 22.8017 275.399 27.7387C263.192 32.6758 257.299 46.5731 262.238 58.7792C267.177 70.9853 281.077 76.878 293.285 71.9409Z" fill="#FFB9B9"/>
<path id="Path 35" d="M254.792 93.3532L272.923 97.711L285.685 67.6108L269.548 58.5505L254.792 93.3532Z" fill="#FFB9B9"/>
<path id="Path 36" d="M210.98 212.381C234.045 219.499 256.749 221.132 278.451 207.694C280.94 193.577 276.54 167.74 281.258 153.954C291.56 123.851 293.102 100.105 279.64 84.4664C272.106 82.9813 272.372 82.8812 262.818 71.7864C231.294 91.8764 213.867 143.683 210.98 212.381Z" fill="#E6E6E6"/>
<path id="Path 38" d="M349.755 187.429L358.687 172.906L310.502 134.723L284.588 94.0741C282.88 91.3957 280.289 89.3997 277.263 88.4323C274.237 87.465 270.968 87.5874 268.023 88.7783C266.097 89.5572 264.375 90.7671 262.99 92.3151C261.604 93.8631 260.592 95.708 260.031 97.7082C259.47 99.7083 259.375 101.811 259.752 103.853C260.13 105.896 260.972 107.825 262.211 109.492L294.477 152.897L349.755 187.429Z" fill="#E6E6E6"/>
<path id="Path 39" d="M299.245 38.9872C300.53 39.6747 301.966 40.0315 303.424 40.0253C304.881 40.0192 306.314 39.6503 307.592 38.952C308.847 38.2107 309.822 37.0778 310.369 35.7277C310.916 34.3777 311.004 32.8852 310.62 31.4802C309.828 29.0998 307.599 27.5248 305.43 26.2703C300.637 23.5071 295.453 21.4837 290.055 20.2687C287.482 19.6899 284.743 19.3065 282.242 20.144C281.005 20.5582 279.878 21.2561 278.648 21.6921C276.387 22.4959 273.915 22.3759 271.545 22.7549C269.118 23.1591 266.806 24.0801 264.765 25.4554C262.725 26.8306 261.003 28.6281 259.718 30.7263C258.873 32.1551 258.203 33.6804 257.723 35.2693C256.374 39.6131 256.159 44.2296 257.096 48.6805C258.594 55.7327 262.97 62.3632 262.189 69.5288C265.76 67.6812 267.592 63.6519 270.627 61.013C272.883 59.0674 275.733 57.9444 278.71 57.8271C279.519 57.8997 280.331 57.7356 281.048 57.355C281.578 56.8859 281.958 56.2712 282.142 55.5874L285.916 45.5256C286.683 43.4781 287.597 41.258 289.532 40.2347C290.72 39.7062 292.013 39.4594 293.312 39.5138C296.428 39.4425 299.546 39.6274 302.632 40.0664" fill="#2F2E41"/>
<path id="Path 7" d="M388.503 163.943C389.259 162.794 389.678 161.456 389.712 160.081C389.746 158.706 389.394 157.348 388.695 156.163C387.997 154.978 386.98 154.012 385.761 153.375C384.541 152.738 383.168 152.455 381.796 152.559L364.114 153.898L358.526 164.835L381.597 167.222C382.939 167.361 384.293 167.129 385.512 166.551C386.73 165.973 387.767 165.071 388.507 163.944L388.503 163.943Z" fill="#FFB9B9"/>
</g>
<g id="motor body">
<path id="Path 125" d="M94.9776 353.772C94.9776 353.772 100.753 301.627 119.039 284.801C137.325 267.975 251.856 284.801 251.856 284.801C251.856 284.801 203.734 357.369 217.208 374.192C230.682 391.014 94.9776 353.772 94.9776 353.772Z" fill="#F1961E"/>
<path id="Path 124" d="M101.121 347.273C101.121 347.273 106.896 299.56 125.182 284.165C143.468 268.769 258 284.165 258 284.165C258 284.165 209.878 350.561 223.352 365.957C236.826 381.354 101.121 347.273 101.121 347.273Z" fill="#FDBD10"/>
<path id="Path 127" d="M233.011 305.61V334.479C233.011 334.479 239.674 345.582 251.52 348.543C263.366 351.503 406.329 388.099 406.329 388.099L392.799 402.809L362.933 401.797L233.012 397.395L192.292 330.776L233.011 305.61Z" fill="#FDBD10"/>
<path id="Rectangle 34" d="M258.228 258.778H108.149C102.332 258.778 97.6167 263.492 97.6167 269.308V290.368C97.6167 296.183 102.332 300.898 108.149 300.898H258.228C264.045 300.898 268.76 296.183 268.76 290.368V269.308C268.76 263.492 264.045 258.778 258.228 258.778Z" fill="#F1961E"/>
<path id="Rectangle 33" d="M259.983 254.39H109.904C104.087 254.39 99.372 259.105 99.372 264.92V285.98C99.372 291.796 104.087 296.51 109.904 296.51H259.983C265.8 296.51 270.515 291.796 270.515 285.98V264.92C270.515 259.105 265.8 254.39 259.983 254.39Z" fill="#FDBD10"/>
<path id="Path 129" d="M359.049 399.469C359.049 399.469 401.265 407.93 404.221 375.601C407.178 343.273 421.248 214.648 421.248 214.648C421.248 214.648 426.426 206.394 415.325 194.013C404.225 181.631 382.292 162.122 382.292 162.122L375.513 172.497L404.221 198.827C404.221 198.827 413.105 213.959 408.663 218.774C404.221 223.589 340.15 372.171 340.15 372.171L359.049 399.469Z" fill="#F1961E"/>
<path id="Path 128" d="M358.427 399.969C358.427 399.969 404.767 408.125 407.732 376.008C410.697 343.892 424.759 216.109 424.759 216.109C424.759 216.109 429.937 207.909 418.836 195.609C407.735 183.309 383.3 162.126 383.3 162.126L376.637 172.376L407.731 200.392C407.731 200.392 416.615 215.425 412.173 220.209C407.731 224.992 339.75 381.744 339.75 381.744L358.427 399.969Z" fill="#FDBD10"/>
<path id="Ellipse 24" d="M370.568 195.598C374.446 195.598 377.59 192.455 377.59 188.578C377.59 184.701 374.446 181.558 370.568 181.558C366.691 181.558 363.547 184.701 363.547 188.578C363.547 192.455 366.691 195.598 370.568 195.598Z" fill="#3F3D56"/>
<path id="Path 133" d="M376.506 186.511L383.403 167.637L375.144 166.276L367.246 184.791L376.503 187.06L376.506 186.511Z" fill="#3F3D56"/>
<path id="Ellipse 25" d="M380.223 171.906C384.1 171.906 387.244 168.763 387.244 164.886C387.244 161.009 384.1 157.866 380.223 157.866C376.345 157.866 373.201 161.009 373.201 164.886C373.201 168.763 376.345 171.906 380.223 171.906Z" fill="#3F3D56"/>
<path id="Path 147" d="M473.274 356.292C473.274 356.292 461.209 321.347 413.359 326.4C365.509 331.454 368.13 399.616 368.13 399.616C368.13 399.616 342.258 402.493 398.075 400.882C401.753 400.776 416.91 360.716 421.88 359.753C425.84 358.985 431.71 358.794 438.445 358.524C449.415 358.086 467.722 359.687 475.715 362.358" fill="#F1961E"/>
<path id="Path 145" d="M472.396 352.782C472.396 352.782 460.331 317.837 412.481 322.89C364.631 327.944 362.61 400.378 362.61 400.378C362.61 400.378 345.964 398.788 401.781 397.177C405.46 397.071 416.032 357.207 421.002 356.245C424.962 355.477 430.832 355.285 437.567 355.016C448.538 354.577 466.845 356.179 474.838 358.85" fill="#FDBD10"/>
<path id="Path 146" d="M413.324 324.477L406.146 387.671C406.146 387.671 405.795 407.208 385.654 402.423C383.978 402.024 382.67 402.416 380.977 402.423C378.121 402.43 375.646 402.562 373.247 402.423C364.565 401.916 362.336 401.361 362.336 401.361L364.275 344.81L413.324 324.477Z" fill="#FDBD10"/>
</g>
<path id="hand right" d="M357.311 174.878L375.245 177.695C375.245 177.695 379.728 179.229 380.2 182.06C380.672 184.89 381.143 187.957 379.374 189.374C378.513 190.034 377.697 190.75 376.929 191.517C376.929 191.517 377.28 186.381 376.098 186.263C374.915 186.144 372.648 184.655 372.648 184.655L367.457 183.83C367.457 183.83 363.445 187.015 363.445 188.666C363.445 190.318 350.703 185.613 350.703 185.613L357.311 174.878Z" fill="#FFB9B9"/>
<g id="delivery bag">
<path id="Rectangle 36" d="M153.787 113.114H29.1593C17.0414 113.114 7.2179 122.936 7.2179 135.051V220.168C7.2179 232.284 17.0414 242.105 29.1593 242.105H153.787C165.905 242.105 175.728 232.284 175.728 220.168V135.051C175.728 122.936 165.905 113.114 153.787 113.114Z" fill="#F1961E"/>
<path id="Rectangle 35" d="M160.808 115.746H36.1806C24.0627 115.746 14.2392 125.568 14.2392 137.684V222.801C14.2392 234.916 24.0627 244.738 36.1806 244.738H160.808C172.926 244.738 182.75 234.916 182.75 222.801V137.684C182.75 125.568 172.926 115.746 160.808 115.746Z" fill="#FDBD10"/>
<path id="Rectangle 38" d="M186.26 104.339H3.70727C1.7684 104.339 0.19664 105.911 0.19664 107.849V147.336C0.19664 149.275 1.7684 150.846 3.70727 150.846H186.26C188.199 150.846 189.771 149.275 189.771 147.336V107.849C189.771 105.911 188.199 104.339 186.26 104.339Z" fill="#F1961E"/>
<path id="Rectangle 37" d="M186.26 104.339H3.70727C1.7684 104.339 0.19664 105.911 0.19664 107.849V141.194C0.19664 143.132 1.7684 144.704 3.70727 144.704H186.26C188.199 144.704 189.771 143.132 189.771 141.194V107.849C189.771 105.911 188.199 104.339 186.26 104.339Z" fill="#FDBD10"/>
</g>
<g id="bag strap">
<path id="Rectangle 43" d="M137.989 150.846H126.579V244.738H137.989V150.846Z" fill="#60616E"/>
<path id="Rectangle 44" d="M59.8774 150.846H48.4678V244.738H59.8774V150.846Z" fill="#60616E"/>
<path id="Rectangle 41" d="M140.622 150.846H129.212V250.003H140.622V150.846Z" fill="#535461"/>
<path id="Rectangle 42" d="M62.5104 150.846H51.1008V250.003H62.5104V150.846Z" fill="#535461"/>
</g>
<text id="Food Delivery" fill="#412D18" xml:space="preserve" style="white-space: pre" font-family="Fira Code" font-size="16" letter-spacing="0em"><tspan x="45" y="130.844">Food Delivery</tspan></text>
<g id="small-logo-in-bag">
<g id="Group 12">
<path id="Rectangle 45" d="M16.5153 121.375L16.0233 122.493L33.7809 130.304L34.2729 129.186L16.5153 121.375Z" fill="#E6E6E6"/>
<path id="Path 135" d="M11.1462 117.579L15.0932 119.314C15.1659 119.35 15.2219 119.413 15.2495 119.489C15.2772 119.565 15.2744 119.649 15.2417 119.724C15.209 119.798 15.1489 119.857 15.074 119.888C14.9991 119.919 14.9151 119.92 14.8394 119.891L10.299 117.898C9.9725 118.073 9.69423 118.325 9.48902 118.633L14.4328 120.807C14.4725 120.822 14.5087 120.846 14.5392 120.875C14.5697 120.905 14.5939 120.941 14.6102 120.98C14.6265 121.019 14.6347 121.062 14.6343 121.104C14.6338 121.147 14.6247 121.189 14.6075 121.228C14.5904 121.267 14.5655 121.302 14.5344 121.331C14.5032 121.36 14.4665 121.383 14.4265 121.397C14.3864 121.412 14.3438 121.418 14.3013 121.415C14.2588 121.413 14.2171 121.402 14.179 121.383L9.23521 119.21C9.14629 119.569 9.14759 119.945 9.23902 120.303L13.7794 122.296C13.8521 122.332 13.9081 122.395 13.9357 122.471C13.9633 122.547 13.9605 122.631 13.9278 122.705C13.8952 122.779 13.8351 122.838 13.7602 122.869C13.6853 122.9 13.6013 122.901 13.5256 122.872L9.5786 121.137C10.1958 122.135 11.1125 122.914 12.1981 123.361C14.4261 124.34 16.7597 123.935 17.4103 122.457C18.0608 120.978 16.7813 118.984 14.5533 118.005C13.4906 117.508 12.2984 117.359 11.1462 117.579V117.579Z" fill="#E6E6E6"/>
</g>
<g id="Group 14">
<path id="Rectangle 46" d="M19.2034 116.669L18.1843 117.331L28.7797 133.639L29.7988 132.977L19.2034 116.669Z" fill="#E6E6E6"/>
<path id="Ellipse 26" d="M19.1007 118.184C20.3675 117.361 20.3568 115.097 19.0768 113.127C17.7969 111.157 15.7323 110.227 14.4656 111.05C13.1989 111.872 13.2096 114.136 14.4895 116.106C15.7695 118.076 17.834 119.006 19.1007 118.184Z" fill="#E6E6E6"/>
</g>
<path id="Path 136" d="M38.851 127.611C34.1183 129.599 29.7793 132.417 26.0387 135.932C25.9793 135.988 25.9083 136.03 25.8309 136.056C25.7534 136.081 25.6713 136.09 25.5903 136.08C25.5093 136.07 25.4314 136.043 25.3622 136C25.2929 135.957 25.2339 135.899 25.1894 135.831L21.4181 130.026L35.3349 120.988L39.1063 126.792C39.1506 126.861 39.1794 126.938 39.1906 127.019C39.2018 127.1 39.1951 127.182 39.171 127.26C39.147 127.338 39.1061 127.409 39.0513 127.47C38.9966 127.53 38.9292 127.578 38.854 127.609L38.851 127.611Z" fill="#F1961E"/>
<path id="Path 137" d="M31.2747 117.531C30.9533 117.739 30.669 118 30.4336 118.302C29.3665 117.629 28.1296 117.275 26.8682 117.28C25.6067 117.286 24.3729 117.65 23.3116 118.332C22.2503 119.014 21.4055 119.984 20.8763 121.129C20.3471 122.274 20.1554 123.546 20.3238 124.796C19.7968 124.96 19.3171 125.249 18.9251 125.637C18.533 126.026 18.2401 126.503 18.071 127.028C17.9019 127.554 17.8616 128.112 17.9535 128.656C18.0453 129.2 18.2666 129.715 18.5987 130.156C18.9309 130.596 19.3641 130.951 19.862 131.19C20.3598 131.428 20.9077 131.543 21.4594 131.526C22.0112 131.508 22.5506 131.359 23.0323 131.089C23.5141 130.82 23.9239 130.438 24.2274 129.977C25.2417 130.423 26.3515 130.608 27.4554 130.514C28.5593 130.421 29.6222 130.052 30.5469 129.442C31.4716 128.832 32.2287 128 32.7489 127.022C33.2692 126.044 33.536 124.951 33.5251 123.844C34.0423 123.787 34.5399 123.615 34.9808 123.339C35.4216 123.062 35.7941 122.69 36.0704 122.249C36.3467 121.809 36.5196 121.311 36.5761 120.794C36.6326 120.277 36.5712 119.754 36.3966 119.264C36.2219 118.774 35.9386 118.33 35.5677 117.965C35.1969 117.6 34.7483 117.324 34.2555 117.157C33.7627 116.991 33.2386 116.938 32.7224 117.003C32.2062 117.067 31.7114 117.248 31.2752 117.532L31.2747 117.531Z" fill="#F1961E"/>
<path id="Path 138" d="M21.3656 127.499L21.3037 127.539C20.7643 126.714 20.4165 125.778 20.2858 124.801L20.359 124.791C20.4882 125.757 20.8322 126.683 21.3656 127.499V127.499Z" fill="#3F3D56"/>
<path id="Path 139" d="M32.4877 120.281L32.4258 120.321C31.9088 119.52 31.223 118.843 30.4166 118.335L30.4565 118.273C31.2718 118.786 31.965 119.471 32.4877 120.281V120.281Z" fill="#3F3D56"/>
<path id="Path 140" d="M23.1797 132.723L23.1257 132.672C24.3557 131.416 25.6744 130.249 27.0717 129.181C30.0813 126.807 33.4522 124.931 37.0561 123.625L37.0798 123.696C33.4844 124.999 30.1212 126.87 27.1185 129.238C25.7238 130.304 24.4074 131.469 23.1797 132.723V132.723Z" fill="#3F3D56"/>
<path id="Path 141" d="M23.7245 133.562L23.6706 133.511C24.9006 132.254 26.2193 131.087 27.6165 130.019C30.6261 127.646 33.9971 125.77 37.6009 124.464L37.6247 124.534C34.0292 125.837 30.6661 127.709 27.6633 130.077C26.2686 131.143 24.9523 132.307 23.7245 133.562V133.562Z" fill="#3F3D56"/>
<path id="Path 142" d="M24.2693 134.4L24.2154 134.349C25.4454 133.093 26.7641 131.926 28.1613 130.858C31.1709 128.484 34.5419 126.609 38.1457 125.302L38.1695 125.373C34.574 126.676 31.2109 128.547 28.2081 130.916C26.8134 131.981 25.4971 133.146 24.2693 134.4V134.4Z" fill="#3F3D56"/>
</g>
<g id="large-logo-in-bag">
<path id="Rectangle 46_2" d="M88.216 182.521L87.435 183.451L102.327 195.949L103.108 195.019L88.216 182.521Z" fill="#E6E6E6"/>
<path id="Ellipse 26_2" d="M88.5597 184.001C89.5305 182.844 88.8593 180.683 87.0606 179.174C85.2618 177.664 83.0167 177.378 82.0459 178.534C81.0752 179.69 81.7464 181.851 83.5451 183.361C85.3438 184.87 87.589 185.157 88.5597 184.001Z" fill="#E6E6E6"/>
<path id="Rectangle 45_2" d="M99.7979 183.947L99.0753 182.962L83.4332 194.433L84.1558 195.418L99.7979 183.947Z" fill="#E6E6E6"/>
<path id="Path 135_2" d="M105.638 181.23L102.161 183.778C102.094 183.823 102.012 183.84 101.932 183.826C101.852 183.812 101.781 183.767 101.733 183.702C101.685 183.636 101.664 183.555 101.674 183.475C101.685 183.394 101.726 183.321 101.789 183.27L105.786 180.337C105.798 179.967 105.719 179.6 105.555 179.268L101.199 182.46C101.166 182.486 101.128 182.506 101.087 182.518C101.046 182.529 101.003 182.532 100.961 182.527C100.919 182.521 100.878 182.507 100.841 182.485C100.805 182.464 100.773 182.435 100.748 182.4C100.722 182.366 100.704 182.327 100.695 182.285C100.685 182.244 100.684 182.201 100.692 182.159C100.699 182.117 100.715 182.077 100.738 182.041C100.762 182.006 100.792 181.975 100.828 181.952L105.183 178.76C104.916 178.503 104.59 178.317 104.234 178.216L100.237 181.149C100.17 181.194 100.087 181.211 100.007 181.197C99.9276 181.183 99.8563 181.138 99.8084 181.073C99.7605 181.007 99.7397 180.926 99.7503 180.845C99.7608 180.765 99.802 180.692 99.8652 180.641L103.342 178.093C102.169 178.128 101.037 178.532 100.106 179.248C98.1435 180.686 97.3264 182.908 98.2813 184.211C99.2362 185.514 101.602 185.404 103.565 183.966C104.527 183.295 105.253 182.338 105.638 181.23V181.23Z" fill="#E6E6E6"/>
<g id="Ellipse 27">
<path id="Vector" d="M94.1061 211.832C107.436 211.832 118.242 201.028 118.242 187.701C118.242 174.374 107.436 163.57 94.1061 163.57C80.7763 163.57 69.9705 174.374 69.9705 187.701C69.9705 201.028 80.7763 211.832 94.1061 211.832Z" stroke="#F1961E" stroke-width="7"/>
</g>
</g>
<g id="helmet">
<path id="Intersection 7" d="M312.643 35.8947L250.329 35.8947C250.329 27.6329 253.612 19.7095 259.455 13.8676C265.298 8.02562 273.223 4.74366 281.486 4.74366C289.749 4.74366 297.674 8.02562 303.517 13.8676C309.36 19.7095 312.643 27.6329 312.643 35.8947V35.8947Z" fill="#FDBD10"/>
<path id="Path 143" d="M272.222 47.8014L271.577 59.9889C271.577 59.9889 275.766 60.633 275.981 60.3645C276.196 60.0959 275.981 46.8879 275.981 46.8879L272.222 47.8014Z" fill="#F1961E"/>
<path id="Intersection 8" d="M274.904 10.4474V60.4645C268.333 60.3899 262.059 57.7172 257.454 53.0308C252.849 48.3444 250.287 42.0255 250.329 35.4559C250.287 28.8863 252.849 22.5675 257.454 17.8811C262.059 13.1946 268.333 10.5219 274.904 10.4474V10.4474Z" fill="#FDBD10"/>
<path id="Ellipse 32" d="M277.975 49.9346C285.004 49.9346 290.702 44.238 290.702 37.211C290.702 30.1839 285.004 24.4873 277.975 24.4873C270.947 24.4873 265.249 30.1839 265.249 37.211C265.249 44.238 270.947 49.9346 277.975 49.9346Z" fill="#F1961E"/>
<path id="Ellipse 31" d="M277.975 48.1796C285.004 48.1796 290.702 42.483 290.702 35.4559C290.702 28.4289 285.004 22.7323 277.975 22.7323C270.947 22.7323 265.249 28.4289 265.249 35.4559C265.249 42.483 270.947 48.1796 277.975 48.1796Z" fill="#FDBD10"/>
<path id="Path 144" d="M311.946 29.0099H284.344C284.344 29.0099 280.692 35.8289 281.229 36.6344C281.766 37.4399 314.58 36.6344 314.58 36.6344C314.58 36.6344 313.073 28.7414 311.947 29.0099" fill="#AAA9C0"/>
</g>
<g id="wheel-one-cover">
<path id="Intersection 6" d="M246.819 398.299H80.0635C80.2812 354.648 117.526 319.325 163.441 319.325C209.356 319.325 246.6 354.648 246.819 398.299Z" fill="#F1961E"/>
<path id="Intersection 1" d="M238.92 398.299H80.0635C80.0635 377.238 88.4318 357.039 103.327 342.146C118.223 327.253 138.426 318.886 159.492 318.886C180.557 318.886 200.76 327.253 215.656 342.146C230.551 357.039 238.92 377.238 238.92 398.299V398.299Z" fill="#FDBD10"/>
<path id="Intersection 3" d="M210.835 398.299H94.9837C95.1347 370.169 121.011 347.405 152.909 347.405C184.808 347.405 210.682 370.169 210.835 398.299Z" fill="#F1961E"/>
<path id="Intersection 4" d="M192.404 398.299H113.415C113.415 387.827 117.576 377.783 124.982 370.378C132.389 362.972 142.435 358.812 152.909 358.812C163.384 358.812 173.429 362.972 180.836 370.378C188.243 377.783 192.404 387.827 192.404 398.299V398.299Z" fill="#F9CB4D"/>
<path id="Intersection 5" d="M183.627 398.299H113.415C113.502 376.473 129.188 358.812 148.521 358.812C167.854 358.812 183.534 376.473 183.627 398.299Z" fill="#FDBD10"/>
</g>
<path id="Ellipse 38" opacity="0.1" d="M273.929 488.588C381.013 488.588 467.822 482.718 467.822 475.478C467.822 468.238 381.013 462.368 273.929 462.368C166.846 462.368 80.0372 468.238 80.0372 475.478C80.0372 482.718 166.846 488.588 273.929 488.588Z" fill="#FDBD10"/>
</g>
</svg>
