<svg width="100%" height="100%" viewBox="0 0 450 636" fill="none" xmlns="http://www.w3.org/2000/svg">
<g id="chef">
<g id="Group 46">
<path id="Vector" d="M198.761 209.754C197.35 207.022 189.892 190.039 189.892 190.039L177.395 157.634C177.395 157.634 168.526 143.97 168.526 141.432C168.526 138.894 152.401 128.744 152.401 128.744C152.401 128.744 139.299 124.84 138.291 124.449C137.284 124.059 121.763 118.921 121.763 118.921C121.763 118.921 115.652 110.878 114.781 112.979L114.78 112.984C114.748 112.931 114.716 112.885 114.684 112.83C113.436 110.496 112.645 107.943 112.354 105.311C112.321 105.077 112.293 104.83 112.263 104.586C116.288 101.856 119.588 98.1847 121.876 93.8904C124.163 89.596 125.37 84.8083 125.391 79.9419C125.388 78.6607 125.302 77.3811 125.133 76.1111C125.244 76.0418 125.36 75.9808 125.48 75.9284C125.731 75.8194 125.667 75.7308 125.483 75.6382C125.546 75.6051 125.609 75.5699 125.673 75.5429C126.006 75.3978 125.784 75.288 125.461 75.1574L125.48 75.1477C125.935 74.9499 125.36 74.819 124.898 74.6099C124.873 74.4748 124.85 74.3393 124.823 74.2048C124.925 73.9476 124.988 73.6764 125.008 73.4004C125.049 73.4208 125.087 73.4428 125.13 73.4618C125.242 72.9587 125.239 72.4367 125.122 71.9348C125.093 72.0368 125.058 72.1369 125.017 72.2348C125.046 71.7798 124.952 71.3254 124.746 70.9189C124.539 70.5125 124.228 70.1689 123.843 69.9239C123.82 69.9036 123.795 69.882 123.771 69.8615L124.626 61.1041C137.231 60.508 139.442 39.0488 136.567 37.8566C133.693 36.6644 136.567 34.0814 136.567 28.9152C136.567 23.7491 127.059 17.9869 127.059 17.9869C127.059 17.9869 123.078 19.9739 116.886 10.0391C110.695 0.104207 87.9179 -1.48537 86.37 1.09768C84.8221 3.68072 74.6499 7.05862 61.3819 10.8338C48.1139 14.6091 50.5464 30.3061 52.7577 33.684C54.5794 36.4765 55.6461 39.6943 55.8535 43.0227C55.8535 45.0097 60.0551 53.3549 60.0551 53.3549C58.73 56.2467 62.1024 72.0884 63.1012 76.5908C63.0855 76.7292 63.0688 76.8671 63.055 77.0061C63.0465 77.0197 63.0353 77.0313 63.0271 77.0451C62.9795 77.1178 62.9364 77.1934 62.8981 77.2715C62.6838 77.7381 62.6128 78.2579 62.6943 78.7649C62.6214 79.3191 62.6987 79.8828 62.9181 80.3969C62.994 84.6387 63.9747 88.8153 65.7946 92.647C67.6145 96.4787 70.2316 99.877 73.4706 102.614C73.4862 102.885 73.5017 103.158 73.5165 103.437C73.702 107.115 73.8068 111.464 73.6133 115.626C73.6033 115.839 73.5874 116.047 73.5758 116.259C72.8445 116.407 72.1581 116.725 71.5722 117.187C70.9863 117.65 70.5172 118.244 70.2029 118.921C68.9532 121.326 61.6968 125.035 61.6968 125.035C61.6968 125.035 48.9982 125.62 47.7888 127.963C46.5795 130.305 28.237 138.114 28.237 138.114C28.237 138.114 18.5619 143.775 19.9728 150.216C20.71 153.582 18.6404 158.812 16.496 163.04C12.0107 161.338 7.34007 160.173 2.58129 159.568L12.8571 169.406C12.6418 169.742 12.5149 169.932 12.5149 169.932L6.66952 190.624C6.66952 190.624 4.65388 197.847 2.63824 199.604C0.622596 201.361 4.45232 217.367 4.45232 217.367C4.45232 217.367 2.23505 228.69 0.420981 231.618C-1.39309 234.546 3.24291 241.768 3.24291 241.768L12.5149 262.851L37.1058 269.097C37.1058 269.097 38.7445 269.444 41.3926 270.012C41.3093 270.516 41.2242 271.018 41.1371 271.518C39.9519 278.233 38.3958 284.409 36.5012 286.08C31.8652 290.18 32.0667 308.529 32.0667 308.529L32.2683 334.492C32.2683 334.492 33.8808 366.505 33.0745 367.677C32.5656 368.416 33.5869 369.622 36.2815 370.705C36.2044 371.187 36.1288 371.676 36.0576 372.174C35.2998 377.484 34.9612 383.543 36.7027 386.221C37.459 387.67 37.8727 389.273 37.9121 390.906C37.9121 393.444 41.7418 398.715 41.7418 398.715C41.7418 398.715 38.7184 420.383 43.7575 427.8C48.7966 435.218 53.0295 448.687 50.6107 451.811C50.6107 451.811 46.3779 460.986 48.3935 465.085C50.4091 469.184 48.3935 471.527 45.7731 472.503C43.1528 473.479 43.3786 481.482 43.3786 481.482L48.1919 519.548C48.1919 519.548 50.8123 527.356 48.5951 530.089C46.3779 532.822 46.3778 546.486 49.8044 551.171C53.231 555.856 44.9669 564.445 44.9669 564.445C44.9669 564.445 39.9278 571.668 47.9904 574.01C47.9904 574.01 49.6029 574.401 46.5794 577.524C43.5558 580.647 42.9512 584.551 44.9669 585.918C45.3848 586.169 45.822 586.386 46.2743 586.568C46.1994 587.03 46.1184 587.51 46.0231 588.018C45.249 592.094 43.7897 597.404 41.1371 599.973C35.996 605.244 31.5596 611.16 27.9386 617.573C25.1731 622.82 23.9638 627.731 27.0276 630.035C34.2839 635.5 43.5559 637.257 48.9981 635.11C54.4404 632.963 62.0999 626.326 62.0999 626.326L63.9139 618.713C63.9139 618.713 62.7046 614.028 68.7515 612.271C74.7984 610.514 80.4423 604.267 80.4423 604.267V594.148C81.9064 593.311 83.3198 592.388 84.6752 591.384C84.6752 591.384 87.4971 581.428 84.6752 578.11C81.8533 574.791 80.8454 573.62 84.4736 571.473C88.1018 569.325 88.5936 564.64 85.933 560.541C83.2642 556.442 79.0314 550.39 82.6595 541.801C86.2877 533.212 87.6181 506.859 87.6181 506.859C87.6181 506.859 85.9249 488.9 87.6181 484.801C89.3112 480.702 85.683 472.503 85.683 472.503C85.683 472.503 86.8924 462.352 89.1096 457.667C91.3268 452.982 93.1409 428.191 93.1409 428.191C93.1409 428.191 97.1722 417.65 97.1722 410.818C97.1722 403.985 90.9237 387.588 100.196 383.293C100.196 383.293 104.227 386.807 102.614 400.862C102.614 400.862 107.25 417.259 107.25 422.335C107.25 427.41 110.677 445.76 110.677 445.76C110.677 445.76 111.08 451.616 112.491 453.763C113.902 455.91 112.491 461.767 112.491 461.767C112.491 461.767 117.732 466.647 116.321 469.77C114.91 472.893 116.563 479.936 116.563 479.936L115.313 523.647C115.313 523.647 111.685 542.387 120.151 553.709C120.151 553.709 117.127 570.301 115.313 571.473C113.499 572.644 121.965 582.795 121.965 582.795C121.965 582.795 119.618 589.371 124.384 589.693V600.558C126.038 603.484 128.307 606.015 131.035 607.976C135.47 611.1 133.655 621.836 133.655 621.836C133.655 621.836 139.299 635.501 154.215 632.572C169.131 629.644 171.147 628.278 170.34 623.398C170.05 621.617 169.405 618.439 168.478 614.832C166.873 608.562 164.414 600.996 161.471 597.263C156.835 591.384 153.006 579.086 153.006 579.086C153.006 579.086 151.192 574.986 153.006 573.62C154.82 572.254 154.014 569.716 154.014 569.716C154.014 569.716 155.779 564.641 154.191 561.517C152.603 558.394 157.239 551.952 157.239 551.952L155.828 521.89L157.239 478.164C157.239 478.164 150.99 470.941 153.61 466.647C156.231 462.352 150.587 456.301 150.587 456.301C150.587 456.301 149.982 456.106 151.595 451.225C152.56 448.349 152.416 445.216 151.192 442.441C151.192 442.441 147.765 430.338 153.812 421.164C153.812 421.164 156.432 409.061 157.239 402.814C157.795 398.473 161.278 382.255 163.35 372.768C163.467 372.232 163.58 371.718 163.687 371.228C166.672 371.391 168.929 371.581 168.929 371.581C168.929 371.581 164.293 339.372 168.929 332.735C173.565 326.098 165.301 275.344 165.301 275.344C165.301 275.344 163.326 266.474 162.108 257.424C162.039 256.909 161.976 256.393 161.911 255.878C165.654 255.579 169.41 255.495 173.162 255.628C182.837 256.214 192.311 252.505 192.512 248.796C192.714 245.087 197.955 230.447 198.761 227.128C199.567 223.81 200.172 212.487 198.761 209.754Z" fill="url(#paint0_linear)"/>
<path id="Vector_2" d="M81.1478 586.331V604.406C81.1478 604.406 75.7096 610.625 69.8829 612.374C64.0563 614.123 65.2216 618.788 65.2216 618.788L63.4736 626.368C63.4736 626.368 56.0932 632.976 50.8492 635.114C45.6053 637.252 36.6711 635.502 29.6791 630.06C26.7269 627.767 27.8922 622.877 30.557 617.653C34.0287 611.291 38.3029 605.402 43.2746 600.13C45.8306 597.572 47.2367 592.286 47.9826 588.228C48.5342 585.188 48.7128 582.832 48.7128 582.832L81.1478 586.331Z" fill="#4C495A"/>
<path id="Vector_3" opacity="0.1" d="M81.1478 599.819V604.406C81.1478 604.406 75.7096 610.625 69.8829 612.374C64.0563 614.123 65.2216 618.788 65.2216 618.788L63.4736 626.368C63.4736 626.368 56.0932 632.976 50.8492 635.114C45.6053 637.252 36.6711 635.503 29.6791 630.061C26.7269 627.767 27.8922 622.877 30.557 617.653C30.4327 623.142 32.0564 629.307 39.9728 629.089C48.517 628.818 56.751 625.821 63.4736 620.537C63.4736 620.537 63.2794 607.71 72.2136 604.794C75.4791 603.716 78.5106 602.027 81.1478 599.819V599.819Z" fill="black"/>
<path id="Vector_4" d="M152.233 632.587C137.861 635.503 132.422 621.898 132.422 621.898C132.422 621.898 134.17 611.208 129.898 608.099C127.255 606.127 125.069 603.607 123.488 600.713V582.832L140.968 570.394L150.431 578.774L151.068 579.334C151.068 579.334 154.758 591.578 159.225 597.432C162.061 601.148 164.43 608.682 165.976 614.924C166.87 618.516 167.491 621.68 167.771 623.453C168.548 628.312 166.605 629.672 152.233 632.587Z" fill="#4C495A"/>
<path id="Vector_5" opacity="0.1" d="M152.233 632.587C137.861 635.503 132.422 621.898 132.422 621.898C132.422 621.898 134.17 611.208 129.898 608.099C127.255 606.127 125.069 603.608 123.488 600.713V593.786C126.262 596.717 131.49 602.392 132.617 604.795C134.17 608.099 134.365 620.149 141.551 622.287C148.737 624.425 162.721 626.368 163.886 620.926C164.371 618.858 165.071 616.846 165.976 614.924C166.87 618.516 167.491 621.68 167.771 623.453C168.548 628.312 166.605 629.672 152.233 632.587Z" fill="black"/>
<path id="Vector_6" opacity="0.1" d="M48.7126 582.832L81.1476 586.331V595.885C77.4885 598.054 72.2445 600.355 69.3001 597.992C64.9496 594.509 52.0144 590.086 47.9824 588.228C48.534 585.188 48.7126 582.832 48.7126 582.832Z" fill="black"/>
<path id="Vector_7" opacity="0.1" d="M151.068 580.889C146.601 579.334 138.638 586.136 128.15 590.412C126.692 591.1 125.1 591.455 123.488 591.454V582.832L140.968 570.394L150.431 578.774C150.577 579.497 150.79 580.205 151.068 580.889Z" fill="black"/>
<path id="Vector_8" d="M162.526 366.903C162.526 366.903 161.913 369.764 161.035 373.916C159.038 383.361 155.682 399.509 155.146 403.831C154.369 410.05 151.844 422.1 151.844 422.1C146.018 431.235 149.319 443.285 149.319 443.285C150.5 446.058 150.638 449.165 149.708 452.031C148.154 456.89 148.737 457.084 148.737 457.084C148.737 457.084 154.175 463.109 151.65 467.385C149.125 471.661 155.146 478.852 155.146 478.852L153.786 522.388L155.146 552.319C155.146 552.319 150.679 558.732 152.209 561.842C153.74 564.952 152.038 570.005 152.038 570.005C152.038 570.005 152.815 572.532 151.067 573.892C149.319 575.253 151.067 579.334 151.067 579.334C146.6 577.779 138.637 584.582 128.149 588.857C117.661 593.133 121.157 583.027 121.157 583.027C121.157 583.027 113 572.92 114.748 571.754C116.496 570.588 119.409 554.068 119.409 554.068C111.252 542.795 114.748 524.137 114.748 524.137L115.952 480.617C115.952 480.617 114.359 473.605 115.719 470.495C117.079 467.385 112.029 462.526 112.029 462.526C112.029 462.526 113.388 456.696 112.029 454.558C110.669 452.42 110.281 446.589 110.281 446.589C110.281 446.589 106.979 428.32 106.979 423.267C106.979 418.213 102.512 401.887 102.512 401.887C104.066 387.894 100.181 384.395 100.181 384.395C91.2471 388.671 97.268 404.997 97.268 411.8C97.268 418.602 93.3835 429.097 93.3835 429.097C93.3835 429.097 91.6355 453.78 89.4991 458.445C87.3627 463.109 86.1973 473.216 86.1973 473.216C86.1973 473.216 89.6933 481.379 88.0619 485.46C86.4304 489.542 88.0619 507.423 88.0619 507.423C88.0619 507.423 86.78 533.661 83.284 542.212C79.788 550.764 83.8667 556.789 86.4382 560.87C89.0019 564.952 88.528 569.616 85.032 571.754C81.536 573.892 82.5071 575.058 85.2262 578.362C87.9453 581.666 85.2262 591.578 85.2262 591.578C85.2262 591.578 74.1556 600.325 69.3001 596.437C64.4445 592.55 48.9068 587.497 46.9646 586.137C45.0224 584.776 45.605 580.889 48.5184 577.779C51.4317 574.67 49.8779 574.281 49.8779 574.281C42.1091 571.949 46.9646 564.757 46.9646 564.757C46.9646 564.757 54.9277 556.206 51.6259 551.541C48.3241 546.877 48.3241 533.272 50.4606 530.551C52.597 527.83 50.0721 520.056 50.0721 520.056L45.4341 482.156C45.4341 482.156 45.2166 474.188 47.7415 473.216C50.2664 472.244 52.2086 469.912 50.2663 465.83C48.3241 461.749 52.4028 452.614 52.4028 452.614C54.7334 449.505 50.6548 436.094 45.7992 428.708C40.9437 421.323 43.857 399.749 43.857 399.749C43.857 399.749 40.1668 394.502 40.1668 391.975C40.1305 390.353 39.7324 388.759 39.0015 387.311C37.3235 384.644 37.6497 378.611 38.3799 373.325C39.0869 368.209 40.1668 363.794 40.1668 363.794L162.526 366.903Z" fill="#5F5D7E"/>
<path id="Vector_9" d="M124.459 146.698L86.1975 155.638C86.1975 155.638 67.358 139.701 72.0193 131.15C73.6198 128.211 74.3267 123.196 74.5676 117.894C74.754 113.751 74.653 109.421 74.4742 105.759C74.2024 100.465 73.7673 96.5542 73.7673 96.5542C73.7673 96.5542 113 74.3976 111.641 96.5542C111.364 100.244 111.45 103.952 111.897 107.625C112.174 110.238 112.936 112.777 114.142 115.111C116.24 118.851 118.827 118.905 118.827 118.905L124.459 146.698Z" fill="#FDC2CC"/>
<path id="Vector_10" opacity="0.1" d="M111.897 107.625C106.368 111.594 99.6569 113.57 92.8602 113.232C86.0636 112.893 79.5824 110.258 74.4745 105.759C74.2027 100.465 73.7676 96.5542 73.7676 96.5542C73.7676 96.5542 113 74.3975 111.641 96.5542C111.364 100.244 111.45 103.952 111.897 107.625V107.625Z" fill="black"/>
<path id="Vector_11" d="M94.3548 112.492C110.981 112.492 124.459 99.0041 124.459 82.3664C124.459 65.7287 110.981 52.2412 94.3548 52.2412C77.7287 52.2412 64.2505 65.7287 64.2505 82.3664C64.2505 99.0041 77.7287 112.492 94.3548 112.492Z" fill="#FDC2CC"/>
<path id="Vector_12" opacity="0.1" d="M124.459 146.698L86.1975 155.639C86.1975 155.639 67.358 139.701 72.0193 131.15C73.6198 128.211 74.3267 123.197 74.5676 117.895C75.4123 122.505 77.8857 126.658 81.5362 129.595C90.2762 135.426 88.9166 142.617 88.9166 142.617L104.649 142.034C103.677 135.62 109.504 132.121 111.446 131.344C113.389 130.567 112.417 127.068 112.417 127.068L114.142 115.111C116.24 118.851 118.827 118.905 118.827 118.905L124.459 146.698Z" fill="black"/>
<path id="Vector_13" opacity="0.1" d="M162.527 366.903C162.527 366.903 161.913 369.764 161.035 373.916C156.809 373.69 151.223 373.527 148.737 374.094C144.464 375.066 127.373 375.455 127.373 375.455L85.0324 376.955V375.649C80.1621 375.689 75.2982 376.013 70.4658 376.621C63.2796 377.593 52.0148 376.232 44.8286 375.066C42.6166 374.749 40.4514 374.164 38.3804 373.325C39.0874 368.209 40.1672 363.794 40.1672 363.794L162.527 366.903Z" fill="black"/>
<path id="Vector_14" d="M159.225 243.487C158.611 247.118 159.062 253.135 159.839 259.074C161.012 268.085 162.915 276.916 162.915 276.916C162.915 276.916 170.878 327.449 166.411 334.057C161.944 340.665 166.411 372.734 166.411 372.734C166.411 372.734 153.01 371.568 148.737 372.539C144.464 373.511 127.373 373.9 127.373 373.9L85.0324 375.4V374.094C80.1621 374.133 75.2982 374.458 70.4658 375.066C63.2796 376.038 52.0148 374.677 44.8286 373.511C37.6423 372.345 34.729 370.013 35.5059 368.847C36.2828 367.68 34.729 335.806 34.729 335.806L34.5348 309.957C34.5348 309.957 34.3406 291.687 38.8077 287.606C40.6333 285.942 42.1328 279.793 43.2748 273.107C44.914 263.428 45.7997 252.622 45.7997 252.622L16.278 173.519L15.6953 171.964C15.6953 171.964 24.2411 158.748 22.8815 152.334C21.522 145.921 30.8446 140.284 30.8446 140.284C30.8446 140.284 48.5187 132.51 49.6841 130.178C50.8494 127.845 63.0853 127.262 63.0853 127.262C63.0853 127.262 70.0773 123.57 71.2815 121.175C71.5746 120.506 72.0228 119.917 72.5888 119.456C73.1549 118.995 73.8226 118.676 74.5366 118.524C75.3596 123.191 77.8468 127.401 81.5364 130.372C90.2764 136.203 88.9168 143.394 88.9168 143.394L104.649 142.811C103.678 136.397 109.504 132.899 111.447 132.121C113.389 131.344 112.418 127.845 112.418 127.845L114.236 115.259C115.074 113.168 120.963 121.175 120.963 121.175C120.963 121.175 135.918 126.291 136.889 126.679C137.861 127.068 150.485 130.955 150.485 130.955C150.485 130.955 166.023 141.062 166.023 143.588C166.023 146.115 174.568 159.72 174.568 159.72C174.568 159.72 174.467 160.264 174.281 161.259C172.308 171.972 160.647 235.13 159.225 243.487Z" fill="#FDBD10"/>
<path id="Vector_15" d="M97.074 212.001C97.074 212.001 63.4737 203.061 60.1719 200.923C56.8701 198.785 37.448 211.224 61.143 228.133C61.143 228.133 90.1174 234.158 97.8686 228.133C105.62 222.108 97.074 212.001 97.074 212.001Z" fill="#FDC2CC"/>
<path id="Vector_16" opacity="0.1" d="M169.713 158.748L173.791 158.943L185.833 191.206C185.833 191.206 193.019 208.115 194.379 210.836C195.738 213.557 195.156 224.829 194.379 228.133C193.602 231.437 188.552 246.014 188.358 249.707C188.164 253.399 179.035 257.092 169.713 256.509C160.39 255.926 138.637 258.841 138.637 258.841C138.637 258.841 115.406 256.412 101.153 263.7C101.153 263.7 92.0241 244.848 92.9952 209.669C92.9952 209.669 109.116 208.698 113.194 210.253C117.273 211.807 137.083 216.278 139.608 213.945C142.133 211.613 153.592 218.221 153.592 218.221C154.175 216.94 154.477 215.548 154.477 214.14C154.477 212.732 154.175 211.34 153.592 210.058C151.65 205.394 148.348 190.817 152.621 186.152C156.894 181.488 169.713 158.748 169.713 158.748Z" fill="black"/>
<path id="Vector_17" opacity="0.1" d="M159.838 259.075C150.197 259.728 139.414 261.174 139.414 261.174C139.414 261.174 116.185 258.74 101.929 266.033C101.929 266.033 92.8009 247.18 93.772 212.002C93.772 212.002 109.892 211.03 113.971 212.585C118.05 214.14 137.86 218.61 140.385 216.278C142.91 213.945 154.369 220.553 154.369 220.553C154.952 219.272 155.254 217.88 155.254 216.472C155.254 215.064 154.952 213.672 154.369 212.39C152.427 207.726 149.125 193.149 153.398 188.485C157.671 183.82 170.489 161.081 170.489 161.081L174.281 161.259C172.307 171.972 160.646 235.13 159.225 243.487C158.611 247.118 159.062 253.135 159.838 259.075Z" fill="black"/>
<path id="Vector_18" d="M170.49 159.526L174.568 159.72L186.61 191.983C186.61 191.983 193.796 208.892 195.156 211.613C196.515 214.334 195.933 225.607 195.156 228.911C194.379 232.215 189.329 246.791 189.135 250.484C188.941 254.177 179.812 257.87 170.49 257.286C161.167 256.703 139.414 259.619 139.414 259.619C139.414 259.619 116.183 257.189 101.929 264.478C101.929 264.478 92.8009 245.625 93.772 210.447C93.772 210.447 109.892 209.475 113.971 211.03C118.05 212.585 137.86 217.055 140.385 214.723C142.91 212.39 154.369 218.998 154.369 218.998C154.952 217.717 155.254 216.325 155.254 214.917C155.254 213.509 154.952 212.117 154.369 210.836C152.427 206.171 149.125 191.594 153.398 186.93C157.671 182.265 170.49 159.526 170.49 159.526Z" fill="#FDBD10"/>
<path id="Vector_19" d="M129.456 230.915L134.302 233.918L161.309 190.271L156.462 187.269L129.456 230.915Z" fill="#DFE6F5"/>
<path id="Vector_20" d="M175.156 184.36C179.929 176.647 179.416 167.678 174.009 164.328C168.603 160.978 160.35 164.515 155.578 172.229C150.805 179.943 151.318 188.911 156.725 192.261C162.131 195.611 170.383 192.074 175.156 184.36Z" fill="#DFE6F5"/>
<path id="Vector_21" opacity="0.1" d="M172.394 182.649C175.82 177.112 175.451 170.674 171.571 168.269C167.69 165.865 161.766 168.404 158.34 173.941C154.914 179.478 155.283 185.915 159.164 188.32C163.045 190.725 168.968 188.185 172.394 182.649Z" fill="black"/>
<path id="Vector_22" d="M115.653 253.223L120.499 256.226L137.303 229.068L132.457 226.065L115.653 253.223Z" fill="#53526B"/>
<path id="Vector_23" d="M87.1687 255.149L99.0162 251.845C99.0162 251.845 157.477 253.4 137.861 229.299C137.861 229.299 127.567 219.387 106.008 227.356C84.4496 235.324 78.4287 236.296 78.4287 236.296L87.1687 255.149Z" fill="#FDC2CC"/>
<path id="Vector_24" opacity="0.1" d="M78.4288 153.5C79.716 153.5 80.7595 152.456 80.7595 151.168C80.7595 149.88 79.716 148.836 78.4288 148.836C77.1416 148.836 76.0981 149.88 76.0981 151.168C76.0981 152.456 77.1416 153.5 78.4288 153.5Z" fill="black"/>
<path id="Vector_25" opacity="0.1" d="M118.439 152.14C119.726 152.14 120.769 151.096 120.769 149.808C120.769 148.52 119.726 147.475 118.439 147.475C117.151 147.475 116.108 148.52 116.108 149.808C116.108 151.096 117.151 152.14 118.439 152.14Z" fill="black"/>
<path id="Vector_26" d="M78.4288 152.723C79.716 152.723 80.7595 151.679 80.7595 150.391C80.7595 149.103 79.716 148.059 78.4288 148.059C77.1416 148.059 76.0981 149.103 76.0981 150.391C76.0981 151.679 77.1416 152.723 78.4288 152.723Z" fill="white"/>
<path id="Vector_27" opacity="0.1" d="M81.7306 185.764C83.0177 185.764 84.0612 184.719 84.0612 183.431C84.0612 182.143 83.0177 181.099 81.7306 181.099C80.4434 181.099 79.3999 182.143 79.3999 183.431C79.3999 184.719 80.4434 185.764 81.7306 185.764Z" fill="black"/>
<path id="Vector_28" opacity="0.1" d="M119.604 183.431C120.891 183.431 121.934 182.387 121.934 181.099C121.934 179.811 120.891 178.767 119.604 178.767C118.316 178.767 117.273 179.811 117.273 181.099C117.273 182.387 118.316 183.431 119.604 183.431Z" fill="black"/>
<path id="Vector_29" d="M81.7306 184.986C83.0177 184.986 84.0612 183.942 84.0612 182.654C84.0612 181.366 83.0177 180.322 81.7306 180.322C80.4434 180.322 79.3999 181.366 79.3999 182.654C79.3999 183.942 80.4434 184.986 81.7306 184.986Z" fill="white"/>
<path id="Vector_30" opacity="0.1" d="M118.632 295.977C119.92 295.977 120.963 294.933 120.963 293.644C120.963 292.356 119.92 291.312 118.632 291.312C117.345 291.312 116.302 292.356 116.302 293.644C116.302 294.933 117.345 295.977 118.632 295.977Z" fill="black"/>
<path id="Vector_31" opacity="0.1" d="M87.9591 295.977C89.2463 295.977 90.2897 294.933 90.2897 293.644C90.2897 292.356 89.2463 291.312 87.9591 291.312C86.6719 291.312 85.6284 292.356 85.6284 293.644C85.6284 294.933 86.6719 295.977 87.9591 295.977Z" fill="black"/>
<path id="Vector_32" d="M118.632 295.199C119.92 295.199 120.963 294.155 120.963 292.867C120.963 291.579 119.92 290.534 118.632 290.534C117.345 290.534 116.302 291.579 116.302 292.867C116.302 294.155 117.345 295.199 118.632 295.199Z" fill="white"/>
<path id="Vector_33" opacity="0.1" d="M90.2896 335.029C91.5768 335.029 92.6203 333.984 92.6203 332.696C92.6203 331.408 91.5768 330.364 90.2896 330.364C89.0025 330.364 87.959 331.408 87.959 332.696C87.959 333.984 89.0025 335.029 90.2896 335.029Z" fill="black"/>
<path id="Vector_34" opacity="0.1" d="M119.604 332.697C120.891 332.697 121.934 331.653 121.934 330.364C121.934 329.076 120.891 328.032 119.604 328.032C118.316 328.032 117.273 329.076 117.273 330.364C117.273 331.653 118.316 332.697 119.604 332.697Z" fill="black"/>
<path id="Vector_35" d="M90.2896 334.252C91.5768 334.252 92.6203 333.207 92.6203 331.919C92.6203 330.631 91.5768 329.587 90.2896 329.587C89.0025 329.587 87.959 330.631 87.959 331.919C87.959 333.207 89.0025 334.252 90.2896 334.252Z" fill="white"/>
<path id="Vector_36" d="M87.9591 295.199C89.2463 295.199 90.2897 294.155 90.2897 292.867C90.2897 291.579 89.2463 290.534 87.9591 290.534C86.6719 290.534 85.6284 291.579 85.6284 292.867C85.6284 294.155 86.6719 295.199 87.9591 295.199Z" fill="white"/>
<path id="Vector_37" d="M119.604 331.919C120.891 331.919 121.934 330.875 121.934 329.587C121.934 328.299 120.891 327.254 119.604 327.254C118.316 327.254 117.273 328.299 117.273 329.587C117.273 330.875 118.316 331.919 119.604 331.919Z" fill="white"/>
<path id="Vector_38" d="M118.439 151.363C119.726 151.363 120.769 150.318 120.769 149.03C120.769 147.742 119.726 146.698 118.439 146.698C117.151 146.698 116.108 147.742 116.108 149.03C116.108 150.318 117.151 151.363 118.439 151.363Z" fill="white"/>
<path id="Vector_39" d="M119.604 182.654C120.891 182.654 121.934 181.61 121.934 180.322C121.934 179.034 120.891 177.99 119.604 177.99C118.316 177.99 117.273 179.034 117.273 180.322C117.273 181.61 118.316 182.654 119.604 182.654Z" fill="white"/>
<path id="Vector_40" opacity="0.1" d="M123.1 262.145C123.1 262.145 123.488 315.399 124.653 324.922C124.653 324.922 125.076 264.656 123.1 262.145Z" fill="black"/>
<path id="Vector_41" opacity="0.1" d="M133.005 286.828C132.204 286.828 148.931 349.216 149.708 353.686C150.485 358.157 137.666 286.828 133.005 286.828Z" fill="black"/>
<path id="Vector_42" opacity="0.1" d="M146.212 276.722C146.212 277.305 155.535 310.54 160.196 312.289C164.857 314.038 146.212 276.722 146.212 276.722Z" fill="black"/>
<path id="Vector_43" opacity="0.1" d="M182.92 212.001C182.92 212.001 163.109 212.885 162.527 215.747C161.944 218.61 182.92 212.001 182.92 212.001Z" fill="black"/>
<path id="Vector_44" opacity="0.1" d="M147.96 465.441C147.96 465.441 133.782 471.466 135.919 471.855C138.055 472.244 147.96 465.441 147.96 465.441Z" fill="black"/>
<path id="Vector_45" opacity="0.1" d="M118.633 456.501C118.081 455.258 128.15 461.554 128.15 462.331C128.15 463.109 119.41 458.25 118.633 456.501Z" fill="black"/>
<path id="Vector_46" opacity="0.1" d="M131.84 476.908C131.84 476.908 142.91 476.349 143.687 480.613C144.464 484.877 131.84 476.908 131.84 476.908Z" fill="black"/>
<path id="Vector_47" opacity="0.1" d="M52.209 476.884C52.209 476.884 64.2507 474.528 65.2218 476.884C66.1929 479.24 52.209 476.884 52.209 476.884Z" fill="black"/>
<path id="Vector_48" opacity="0.1" d="M56.676 550.181C56.676 550.181 57.4656 560.093 54.5459 562.425C51.6262 564.758 56.676 550.181 56.676 550.181Z" fill="black"/>
<path id="Vector_49" opacity="0.1" d="M55.2051 571.171C59.0065 571.559 79.0113 568.061 78.8171 571.171C78.6229 574.28 55.2051 571.171 55.2051 571.171Z" fill="black"/>
<path id="Vector_50" opacity="0.1" d="M146.989 559.121C146.989 559.121 140.166 558.071 141.83 562.677L146.989 559.121Z" fill="black"/>
<path id="Vector_51" opacity="0.1" d="M20.1622 171.187H16.472L10.8396 191.789C10.8396 191.789 8.89737 198.98 6.95515 200.729C5.01293 202.478 8.70314 218.415 8.70314 218.415C8.70314 218.415 6.56673 229.688 4.81874 232.603C3.07075 235.519 7.53782 242.71 7.53782 242.71L16.472 263.7L40.167 269.92C40.167 269.92 81.9246 279.054 83.8668 280.415C85.809 281.775 87.557 279.832 88.9166 267.199C90.2761 254.565 93.9663 230.077 96.8796 228.911C96.8796 228.911 73.5731 231.437 71.6309 231.048C69.6887 230.66 60.366 231.243 60.366 231.243C60.366 231.243 48.13 230.465 46.1879 231.632C44.2457 232.798 48.7127 225.986 48.7127 225.986C49.5305 222.868 49.5305 219.591 48.7127 216.472C47.3532 211.224 46.5763 151.751 20.1622 171.187Z" fill="black"/>
<path id="Vector_52" opacity="0.1" d="M96.1028 231.243C93.1895 232.409 89.4993 256.897 88.1398 269.531C86.7802 282.164 85.0322 284.107 83.09 282.747C81.5129 281.643 53.6771 275.408 43.2746 273.107C44.9138 263.428 45.7995 252.622 45.7995 252.622L16.2778 173.519H19.3854C45.7995 154.084 46.5764 213.556 47.9359 218.804C48.7537 221.923 48.7537 225.2 47.9359 228.319C47.9359 228.319 43.4689 235.13 45.4111 233.964C47.3533 232.797 59.5892 233.575 59.5892 233.575C59.5892 233.575 68.9119 232.992 70.8541 233.381C72.7963 233.769 96.1028 231.243 96.1028 231.243Z" fill="black"/>
<path id="Vector_53" d="M19.3854 171.965H15.6952L10.0628 192.566C10.0628 192.566 8.12053 199.758 6.17832 201.507C4.23611 203.256 7.92631 219.193 7.92631 219.193C7.92631 219.193 5.78987 230.466 4.04188 233.381C2.29389 236.296 6.76099 243.488 6.76099 243.488L15.6952 264.478L39.3902 270.697C39.3902 270.697 81.1478 279.832 83.09 281.193C85.0322 282.553 86.7802 280.61 88.1398 267.977C89.4993 255.343 93.1895 230.855 96.1028 229.688C96.1028 229.688 72.7963 232.215 70.8541 231.826C68.9119 231.438 59.5892 232.021 59.5892 232.021C59.5892 232.021 47.3532 231.243 45.411 232.409C43.4689 233.576 47.9359 226.764 47.9359 226.764C48.7537 223.646 48.7537 220.368 47.9359 217.25C46.5764 212.002 45.7995 152.529 19.3854 171.965Z" fill="#FDBD10"/>
<path id="Vector_54" opacity="0.1" d="M32.0097 242.321C32.0097 242.321 21.3275 262.534 19.3853 260.201C17.4431 257.869 32.0097 242.321 32.0097 242.321Z" fill="black"/>
<path id="Vector_55" opacity="0.1" d="M20.939 230.811C20.939 230.811 11.0337 239.017 15.695 241.155C20.3563 243.293 20.939 230.811 20.939 230.811Z" fill="black"/>
<path id="Vector_56" opacity="0.1" d="M30.2617 220.748C31.0386 220.942 44.6341 223.644 44.8283 224.82C45.0225 225.995 30.2617 220.748 30.2617 220.748Z" fill="black"/>
<path id="Vector_57" opacity="0.1" d="M124.545 78.37C124.122 78.5187 123.762 78.8047 123.521 79.1823C123.28 79.56 123.173 80.0075 123.216 80.4534C122.424 81.1531 121.313 80.3291 120.668 79.435C120.015 78.5488 119.277 77.4526 118.291 77.577C117.822 77.7266 117.367 77.9165 116.931 78.1445C115.377 78.642 114.064 76.8151 113.194 75.2137C111.679 72.4072 110.164 69.6033 108.649 66.802C105.612 68.5667 102.023 66.7165 99.0083 64.8895C95.994 63.0625 92.4048 61.2045 89.3594 62.9693C84.8924 65.5503 84.7291 74.1564 80.0989 76.2787C78.6073 76.9628 76.8748 76.8151 75.4919 77.7558C74.1246 78.6887 73.3866 80.4845 72.7728 82.2026C72.5457 83.1806 72.0122 84.0605 71.2502 84.7137C70.766 84.967 70.2272 85.0978 69.6808 85.0946C68.308 85.3281 66.8966 85.1298 65.6411 84.5271C64.9829 84.1132 64.4856 83.487 64.2313 82.7519C63.977 82.0169 63.981 81.217 64.2426 80.4845C64.2795 80.4069 64.321 80.3316 64.367 80.2591C64.8646 79.657 65.3115 79.0148 65.7032 78.3389C66.1693 77.1028 65.5012 75.6646 65.6488 74.3274C65.8896 72.0418 68.3057 70.8368 68.7175 68.59C68.8884 67.7115 68.7097 66.7709 68.8728 65.8846C68.8957 65.7685 68.9269 65.6542 68.9662 65.5426L67.5444 66.5221C69.1371 64.6641 69.9373 62.0831 71.1026 59.8285C72.3971 57.3601 74.1785 55.18 76.3391 53.4202C78.4996 51.6603 80.9944 50.3573 83.6726 49.5899C88.7379 48.1129 94.0906 48.5171 99.2026 49.7687C104.064 50.9806 108.72 52.9006 113.023 55.4672C114.561 56.2921 115.926 57.403 117.048 58.7401C117.987 60.1265 118.786 61.6031 119.433 63.1481C120.94 66.2733 125.057 69.1653 121.779 69.6006C119.052 69.966 121.538 71.8785 122.968 73.169C123.29 73.422 123.568 73.7267 123.791 74.0708C124.028 74.5625 124.137 75.1064 124.107 75.6516C124.077 76.1968 123.91 76.7255 123.62 77.1882C123.068 77.888 125.306 78.0279 124.545 78.37Z" fill="black"/>
<path id="Vector_58" d="M124.545 77.593C124.122 77.7417 123.762 78.0277 123.521 78.4054C123.28 78.7831 123.173 79.2306 123.216 79.6765C122.424 80.3762 121.313 79.5521 120.668 78.6581C120.015 77.7718 119.277 76.6757 118.291 76.8C117.822 76.9496 117.367 77.1395 116.931 77.3676C115.377 77.8651 114.064 76.0382 113.194 74.4367C111.679 71.6302 110.164 68.8263 108.649 66.025C105.612 67.7897 102.023 65.9395 99.0083 64.1125C95.994 62.2855 92.4048 60.4275 89.3595 62.1923C84.8924 64.7733 84.7291 73.3794 80.0989 75.5017C78.6073 76.1859 76.8748 76.0382 75.4919 76.9789C74.1246 77.9117 73.3866 79.7076 72.7728 81.4257C72.5457 82.4037 72.0122 83.2835 71.2502 83.9367C70.766 84.1901 70.2272 84.3209 69.6808 84.3177C68.308 84.5512 66.8966 84.3529 65.6411 83.7502C64.9829 83.3363 64.4856 82.7101 64.2313 81.975C63.977 81.2399 63.981 80.44 64.2426 79.7076C64.2795 79.63 64.321 79.5547 64.367 79.4821C64.8646 78.8801 65.3115 78.2378 65.7032 77.5619C66.1693 76.3258 65.5012 74.8876 65.6489 73.5504C65.8896 71.2648 68.3058 70.0598 68.7175 67.813C68.8884 66.9345 68.7097 65.9939 68.8729 65.1076C68.8957 64.9915 68.9269 64.8772 68.9662 64.7656L67.5444 65.7451C69.1371 63.8871 69.9373 61.3061 71.1026 59.0515C72.3971 56.583 74.1785 54.4029 76.3391 52.6431C78.4996 50.8833 80.9944 49.5802 83.6726 48.8128C88.7379 47.3357 94.0906 47.74 99.2026 48.9917C104.064 50.2035 108.72 52.1235 113.023 54.6901C114.561 55.5151 115.926 56.6259 117.048 57.9631C117.987 59.3495 118.786 60.8261 119.433 62.3711C120.94 65.4963 125.057 68.3883 121.779 68.8236C119.052 69.1891 121.538 71.1015 122.968 72.392C123.29 72.645 123.568 72.9498 123.791 73.2938C124.028 73.7855 124.137 74.3294 124.107 74.8746C124.077 75.4198 123.91 75.9485 123.62 76.4113C123.068 77.111 125.306 77.2509 124.545 77.593Z" fill="#865A61"/>
<path id="Vector_59" opacity="0.1" d="M122.968 72.3921L122.657 75.6651C122.657 75.6651 90.0588 34.3217 64.7013 81.0059C64.7013 81.0059 64.5769 80.4384 64.3672 79.4822C64.8648 78.8801 65.3117 78.2379 65.7034 77.562C66.1695 76.3258 65.5014 74.8876 65.6491 73.5504C65.8899 71.2649 68.306 70.0598 68.7177 67.8131C68.8886 66.9346 68.71 65.9939 68.8731 65.1076C68.8959 64.9915 68.9271 64.8772 68.9664 64.7656L67.5446 65.7451C69.1373 63.8871 69.9375 61.3061 71.1028 59.0515C72.3974 56.583 74.1787 54.4029 76.3393 52.6431C78.4998 50.8833 80.9946 49.5802 83.6728 48.8128C88.7381 47.3357 94.0908 47.74 99.2028 48.9917C104.064 50.2035 108.72 52.1235 113.024 54.6901C114.561 55.5151 115.927 56.626 117.048 57.9631C117.987 59.3495 118.786 60.8261 119.433 62.3711C120.94 65.4963 125.058 68.3883 121.779 68.8237C119.052 69.1891 121.538 71.1016 122.968 72.3921Z" fill="black"/>
<g id="Group" opacity="0.1">
<path id="Vector_60" opacity="0.1" d="M123.771 77.1695C123.611 77.3503 123.494 77.5658 123.429 77.7991C123.365 78.0325 123.356 78.2775 123.402 78.5151C122.609 79.2148 121.498 78.3907 120.854 77.4967C120.201 76.6104 119.463 75.5143 118.476 75.6387C118.008 75.7883 117.553 75.9782 117.117 76.2062C115.563 76.7037 114.25 74.8768 113.38 73.2753C111.865 70.4688 110.35 67.665 108.835 64.8637C105.797 66.6284 102.208 64.7781 99.1939 62.9512C96.1796 61.1242 92.5904 59.2662 89.5451 61.031C85.078 63.612 84.9148 72.218 80.2846 74.3404C78.7929 75.0245 77.0605 74.8767 75.6776 75.8175C74.3102 76.7503 73.5722 78.5462 72.9585 80.2643C72.7314 81.2423 72.1978 82.1221 71.4358 82.7753C70.9516 83.0287 70.4128 83.1595 69.8665 83.1563C68.4936 83.3898 67.0822 83.1915 65.8267 82.5888C65.0742 82.0894 64.5345 81.3275 64.3127 80.4516C64.1585 81.1481 64.2209 81.8751 64.4915 82.5351C64.7621 83.195 65.228 83.7563 65.8267 84.1436C67.0822 84.7463 68.4936 84.9446 69.8665 84.7112C70.4128 84.7143 70.9516 84.5835 71.4358 84.3302C72.1978 83.677 72.7314 82.7972 72.9585 81.8191C73.5722 80.101 74.3102 78.3052 75.6776 77.3723C77.0604 76.4316 78.7929 76.5793 80.2846 75.8952C84.9148 73.7729 85.078 65.1669 89.5451 62.5858C92.5904 60.8211 96.1796 62.6791 99.1939 64.506C102.208 66.3329 105.797 68.1832 108.835 66.4185C110.35 69.2172 111.865 72.0211 113.38 74.8302C114.25 76.4316 115.563 78.2585 117.117 77.761C117.553 77.533 118.008 77.3431 118.476 77.1935C119.463 77.0691 120.201 78.1653 120.854 79.0515C121.498 79.9456 122.609 80.7696 123.402 80.0699C123.359 79.624 123.466 79.1765 123.707 78.7988C123.948 78.4212 124.308 78.1352 124.73 77.9865C125.336 77.7144 124.048 77.5692 123.771 77.1695Z" fill="black"/>
<path id="Vector_61" opacity="0.1" d="M121.231 69.4028C121.466 69.3082 121.713 69.2459 121.965 69.2174C123.41 69.0255 123.416 68.355 122.844 67.3984C122.572 67.5453 122.273 67.6352 121.965 67.6623C120.405 67.8714 120.553 68.5871 121.231 69.4028Z" fill="black"/>
<path id="Vector_62" opacity="0.1" d="M124.207 75.9141C124.315 75.4129 124.313 74.8941 124.199 74.394C124.13 74.7039 123.996 74.9956 123.806 75.2497C123.562 75.5583 123.862 75.7579 124.207 75.9141Z" fill="black"/>
<path id="Vector_63" opacity="0.1" d="M65.8795 73.675C65.863 73.7639 65.8443 73.8517 65.8346 73.9439C65.8029 74.6438 65.8538 75.345 65.9863 76.033C66.0779 75.2464 66.0418 74.4502 65.8795 73.675V73.675Z" fill="black"/>
<path id="Vector_64" opacity="0.1" d="M69.0334 64.1902C68.6678 64.883 68.2309 65.5359 67.73 66.1381L68.9839 65.2745C68.9778 64.9124 68.9943 64.5502 69.0334 64.1902V64.1902Z" fill="black"/>
</g>
<path id="Vector_65" d="M64.6996 80.2284C64.6996 80.2284 60.0119 59.2583 61.5034 55.8951C61.5034 55.8951 57.455 47.5863 57.455 45.6079C57.2585 42.3067 56.2325 39.1086 54.4719 36.3099C52.3411 32.9468 49.9972 17.3181 62.7819 13.5593C75.5665 9.80052 85.368 6.43738 86.8596 3.8656C88.3511 1.29382 110.298 2.87644 116.264 12.768C122.23 22.6595 126.066 20.6812 126.066 20.6812C126.066 20.6812 135.228 26.4183 135.228 31.5619C135.228 36.7055 132.458 39.2773 135.228 40.4643C137.998 41.6513 135.867 63.0171 123.722 63.6105L122.657 74.8869C122.657 74.8869 90.0557 33.5402 64.6996 80.2284Z" fill="#FDBD10"/>
<path id="Vector_66" opacity="0.1" d="M61.5034 55.895C61.5034 55.895 104.922 38.2467 123.722 63.6103C123.722 63.6103 100.902 44.195 61.5034 55.895Z" fill="black"/>
<path id="Vector_67" d="M45.8135 200.907L51.8635 194.782L68.9685 211.702L62.9185 217.827L47.1875 202.267L45.8135 200.907Z" fill="#53526B"/>
<path id="Vector_68" d="M6.12354 161.646C6.12354 161.646 32.6027 163.9 57.2475 191.659L46.9757 202.057L6.12354 161.646Z" fill="#DFE6F5"/>
<path id="Vector_69" d="M85.5466 211.278C85.5466 211.278 60.0961 201.994 57.5952 199.774C55.0943 197.554 40.3831 210.471 58.3308 228.03C58.3308 228.03 80.2773 234.287 86.1484 228.03C92.0195 221.773 85.5466 211.278 85.5466 211.278Z" fill="#FDC2CC"/>
</g>
<g id="Group 45">
<path id="Vector_70" d="M154.512 416.704H144.636V422.469H154.512V416.704Z" fill="#3F3D56"/>
<path id="Vector_71" d="M174.263 416.704H164.387V422.469H174.263V416.704Z" fill="#3F3D56"/>
<path id="Vector_72" d="M194.014 416.704H184.138V422.469H194.014V416.704Z" fill="#3F3D56"/>
<path id="Vector_73" d="M213.765 416.704H203.89V422.469H213.765V416.704Z" fill="#3F3D56"/>
<path id="Vector_74" d="M233.516 416.704H223.641V422.469H233.516V416.704Z" fill="#3F3D56"/>
<path id="Vector_75" d="M253.267 416.704H243.392V422.469H253.267V416.704Z" fill="#3F3D56"/>
<path id="Vector_76" d="M273.018 416.704H263.143V422.469H273.018V416.704Z" fill="#3F3D56"/>
<path id="Vector_77" d="M292.769 416.704H282.894V422.469H292.769V416.704Z" fill="#3F3D56"/>
<path id="Vector_78" d="M312.521 416.704H302.645V422.469H312.521V416.704Z" fill="#3F3D56"/>
<path id="Vector_79" d="M332.272 416.704H322.396V422.469H332.272V416.704Z" fill="#3F3D56"/>
<path id="Vector_80" d="M352.023 416.704H342.147V422.469H352.023V416.704Z" fill="#3F3D56"/>
<path id="Vector_81" d="M374.654 420.41C374.654 451.861 362.169 482.025 339.944 504.264C317.72 526.504 287.577 538.998 256.148 538.998C224.718 538.998 194.575 526.504 172.351 504.264C150.127 482.025 137.641 451.861 137.641 420.41H374.654Z" fill="#3F3D56"/>
<path id="Vector_82" d="M368.926 421.168L293.543 196.311C308.297 191.347 323.883 189.342 339.412 190.411C354.94 191.48 370.106 195.601 384.041 202.54C397.977 209.479 410.408 219.099 420.625 230.85C430.843 242.6 438.645 256.251 443.585 271.021C444.384 273.401 445.108 275.798 445.75 278.194C453.509 307.333 449.885 338.336 435.613 364.895C421.342 391.455 397.496 411.577 368.926 421.168Z" fill="#3F3D56"/>
<path id="Vector_83" d="M371.774 438.939C379.955 438.939 386.587 432.303 386.587 424.116C386.587 415.929 379.955 409.292 371.774 409.292C363.593 409.292 356.96 415.929 356.96 424.116C356.96 432.303 363.593 438.939 371.774 438.939Z" fill="#3F3D56"/>
<path id="Vector_84" d="M221.172 451.292C220.081 451.292 219.034 451.726 218.263 452.498C217.491 453.271 217.057 454.318 217.057 455.41C217.057 456.502 217.491 457.549 218.263 458.322C219.034 459.094 220.081 459.528 221.172 459.528H291.947C293.038 459.528 294.085 459.094 294.856 458.322C295.628 457.549 296.062 456.502 296.062 455.41C296.062 454.318 295.628 453.271 294.856 452.498C294.085 451.726 293.038 451.292 291.947 451.292H221.172Z" fill="#FDBD10"/>
<path id="Vector_85" d="M354.491 634.94L339.756 635.485L286.666 521.232L300.099 514.982L354.491 634.94Z" fill="#3F3D56"/>
<path id="Vector_86" d="M157.804 634.94L172.54 635.485L225.629 521.232L212.197 514.982L157.804 634.94Z" fill="#3F3D56"/>
<path id="Vector_87" d="M317.458 569.057H195.66V577.292H317.458V569.057Z" fill="#3F3D56"/>
<path id="Vector_88" d="M296.556 192.113C295.977 192.113 295.407 192.249 294.89 192.51C294.373 192.77 293.925 193.149 293.58 193.614C293.236 194.08 293.006 194.619 292.907 195.19C292.809 195.761 292.846 196.347 293.015 196.901L296.137 207.141C296.425 208.08 297.073 208.867 297.94 209.328C298.806 209.789 299.821 209.887 300.759 209.6C301.698 209.314 302.485 208.666 302.947 207.799C303.409 206.932 303.508 205.917 303.222 204.978L300.1 194.738C299.867 193.978 299.398 193.314 298.76 192.841C298.122 192.369 297.35 192.113 296.556 192.113Z" fill="#FDBD10"/>
<path id="Vector_89" d="M132.703 422.469C131.721 422.469 130.779 422.859 130.085 423.554C129.39 424.249 129 425.192 129 426.175C129 427.158 129.39 428.1 130.085 428.795C130.779 429.49 131.721 429.881 132.703 429.881H143.402C144.384 429.881 145.326 429.49 146.021 428.795C146.715 428.1 147.105 427.158 147.105 426.175C147.105 425.192 146.715 424.249 146.021 423.554C145.326 422.859 144.384 422.469 143.402 422.469H132.703Z" fill="#FDBD10"/>
<path id="Vector_90" d="M221.172 395.292H176.732C176.452 395.292 176.18 395.3 175.909 395.325C173.005 395.533 170.288 396.832 168.303 398.963C166.318 401.094 165.213 403.897 165.21 406.81C165.207 409.723 166.306 412.529 168.286 414.664C170.267 416.799 172.981 418.105 175.884 418.318C176.164 418.343 176.444 418.351 176.732 418.351H221.172C224.227 418.351 227.158 417.136 229.319 414.974C231.479 412.812 232.693 409.879 232.693 406.822C232.693 403.764 231.479 400.831 229.319 398.669C227.158 396.507 224.227 395.292 221.172 395.292V395.292Z" fill="#FF6584"/>
<path id="Vector_91" opacity="0.2" d="M172.255 417.437C179.826 416.465 185.784 406.904 185.784 395.292H184.138C184.138 406.649 178.229 415.88 170.971 415.88V416.803L172.255 417.437Z" fill="black"/>
<path id="Vector_92" opacity="0.2" d="M188.253 417.527V415.88C195.514 415.88 201.421 406.645 201.421 395.292H203.066C203.066 407.553 196.421 417.527 188.253 417.527Z" fill="black"/>
<path id="Vector_93" opacity="0.2" d="M205.535 417.527V415.88C212.796 415.88 218.703 406.645 218.703 395.292H220.349C220.349 407.553 213.704 417.527 205.535 417.527Z" fill="black"/>
<path id="Vector_94" d="M301.822 395.292H257.382C257.102 395.292 256.831 395.3 256.559 395.325C253.656 395.533 250.938 396.832 248.954 398.963C246.969 401.094 245.864 403.897 245.861 406.81C245.857 409.723 246.957 412.529 248.937 414.664C250.917 416.799 253.631 418.105 256.534 418.318C256.814 418.343 257.094 418.351 257.382 418.351H301.822C304.878 418.351 307.808 417.136 309.969 414.974C312.13 412.812 313.344 409.879 313.344 406.822C313.344 403.764 312.13 400.831 309.969 398.669C307.808 396.507 304.878 395.292 301.822 395.292V395.292Z" fill="#FF6584"/>
<path id="Vector_95" opacity="0.2" d="M252.905 417.437C260.476 416.465 266.435 406.904 266.435 395.292H264.789C264.789 406.649 258.88 415.88 251.621 415.88V416.803L252.905 417.437Z" fill="black"/>
<path id="Vector_96" opacity="0.2" d="M268.904 417.527V415.88C276.164 415.88 282.071 406.645 282.071 395.292H283.717C283.717 407.553 277.072 417.527 268.904 417.527Z" fill="black"/>
<path id="Vector_97" opacity="0.2" d="M286.186 417.527V415.88C293.446 415.88 299.353 406.645 299.353 395.292H300.999C300.999 407.553 294.354 417.527 286.186 417.527Z" fill="black"/>
<path id="Vector_98" d="M217.92 284.574C212.095 281.425 204.895 284.859 201.993 290.433C198.463 297.212 201.389 305.362 205.505 311.156C209.783 317.177 215.589 322.147 218.444 329.106C221.176 335.654 221.5 342.959 219.358 349.724C217.217 356.489 212.749 362.275 206.748 366.055C204.069 367.75 206.544 372.028 209.24 370.322C215.126 366.642 219.782 361.291 222.615 354.951C225.448 348.611 226.328 341.57 225.144 334.728C224.543 331.179 223.397 327.745 221.746 324.547C219.957 321.283 217.801 318.234 215.321 315.459C211.037 310.386 205.644 304.793 205.375 297.734C205.326 296.818 205.39 295.9 205.565 295C205.694 294.371 205.885 293.757 206.135 293.166C206.734 291.898 207.623 290.789 208.729 289.928C209.755 289.109 210.969 288.559 212.261 288.328C213.344 288.167 214.45 288.346 215.427 288.84C218.223 290.352 220.719 286.088 217.92 284.574V284.574Z" fill="#E6E6E6"/>
<path id="Vector_99" d="M292.219 314.463C289.739 313.666 287.09 313.556 284.552 314.146C282.015 314.736 279.685 316.004 277.811 317.814C276.842 318.811 276.125 320.025 275.718 321.354C275.311 322.684 275.226 324.091 275.471 325.46C275.941 328.454 277.83 331.114 279.88 333.257C283.89 337.451 289.503 340.162 292.866 344.977C294.357 347.028 295.292 349.43 295.582 351.951C295.755 354.215 295.34 356.486 294.377 358.542C291.869 363.645 286.889 367.115 281.637 369.349C280.41 369.871 280.139 371.682 280.751 372.729C281.093 373.282 281.635 373.683 282.263 373.848C282.892 374.012 283.56 373.929 284.129 373.616C293.794 369.504 302.736 360.296 300.07 348.982C298.668 343.031 294.37 338.831 289.742 335.179C287.443 333.493 285.272 331.639 283.247 329.633C281.647 327.932 279.984 325.609 280.278 323.304C280.396 322.502 280.788 321.767 281.387 321.222C282.114 320.557 282.939 320.008 283.833 319.595C284.929 319.069 286.119 318.766 287.333 318.703C288.547 318.64 289.762 318.819 290.907 319.228C291.538 319.396 292.21 319.309 292.778 318.987C293.346 318.664 293.764 318.131 293.944 317.502C294.104 316.871 294.014 316.202 293.693 315.635C293.371 315.069 292.843 314.649 292.219 314.463V314.463Z" fill="#E6E6E6"/>
<path id="Vector_100" d="M254.629 244.175C253.158 242.918 251.301 242.202 249.366 242.147C247.532 242.182 245.748 242.759 244.241 243.806C240.836 246.281 238.427 249.892 237.449 253.988C234.954 263.552 238.209 273.861 242.731 282.284C245.017 286.542 247.68 290.583 249.981 294.833C252.2 298.897 253.903 303.223 255.052 307.709C257.394 316.909 257.603 326.522 255.663 335.815C253.687 345.064 249.53 354.223 242.458 360.604C241.995 361.067 241.735 361.696 241.735 362.351C241.735 363.006 241.995 363.635 242.458 364.098C242.921 364.561 243.549 364.822 244.204 364.822C244.859 364.822 245.487 364.561 245.95 364.098C252.226 358.434 256.424 350.664 258.958 342.675C261.754 333.651 262.571 324.13 261.355 314.761C260.806 310.096 259.744 305.505 258.19 301.072C256.506 296.607 254.403 292.311 251.909 288.243C247.268 280.39 242.328 272.448 241.656 263.099C241.326 258.501 241.9 253.709 244.743 250.011C244.587 250.214 244.867 249.864 244.868 249.863C245.041 249.656 245.219 249.455 245.405 249.26C245.757 248.881 246.136 248.528 246.539 248.203C246.453 248.271 246.235 248.417 246.633 248.141C246.83 248.003 247.032 247.872 247.24 247.75C247.409 247.65 247.582 247.562 247.755 247.471C247.858 247.418 247.962 247.369 248.067 247.323C247.827 247.426 247.84 247.427 248.108 247.326C248.301 247.265 249.257 247.058 248.726 247.125C248.903 247.104 249.081 247.093 249.26 247.091C249.335 247.089 250.001 247.123 249.676 247.088C249.296 247.046 249.977 247.155 249.982 247.157C250.195 247.209 250.404 247.275 250.608 247.355C250.095 247.15 251.451 247.913 251.138 247.669C251.611 248.114 252.235 248.361 252.884 248.361C253.532 248.361 254.157 248.114 254.629 247.669C255.481 246.817 255.688 244.999 254.629 244.175L254.629 244.175Z" fill="#E6E6E6"/>
</g>
</g>
<defs>
<linearGradient id="paint0_linear" x1="99.8037" y1="636" x2="99.8037" y2="0" gradientUnits="userSpaceOnUse">
<stop stop-color="#808080" stop-opacity="0.25"/>
<stop offset="0.53514" stop-color="#808080" stop-opacity="0.12"/>
<stop offset="1" stop-color="#808080" stop-opacity="0.1"/>
</linearGradient>
</defs>
</svg>
