<svg xmlns="http://www.w3.org/2000/svg" width="737.296" height="609.25" viewBox="0 0 737.296 609.25">
  <g id="sign-in-svg" transform="translate(-309.474 -257)">
    <path id="Path_348" data-name="Path 348" d="M908.885,288.962V250.375h-6v38.587a8,8,0,1,0,6,0Z" transform="translate(86.885 150.625)" fill="#e6e6e6"/>
    <path id="Path_349" data-name="Path 349" d="M922.885,678.375h-41v-498h-16v498h-41a37,37,0,0,0-37,37h172a37,37,0,0,0-37-37Z" transform="translate(86.885 150.625)" fill="#e6e6e6"/>
    <path id="Path_350" data-name="Path 350" d="M787.968,254.375H959.8l-10.508-131.34a18.2,18.2,0,0,0-18.046-16.66H816.521a18.2,18.2,0,0,0-18.046,16.66Z" transform="translate(86.885 150.625)" fill="#fdbd10"/>
    <path id="Path_351" data-name="Path 351" d="M301.213,563.911H825.692V510.364c0-144.6-117.641-262.239-262.239-262.239s-262.24,117.641-262.24,262.239Z" transform="translate(86.885 150.625)" fill="#3f3d56"/>
    <path id="Path_352" data-name="Path 352" d="M301.213,563.911H825.692V510.364c0-144.6-117.641-262.239-262.239-262.239s-262.24,117.641-262.24,262.239Z" transform="translate(86.885 150.625)" fill="#9b99af" opacity="0.2"/>
    <path id="Path_353" data-name="Path 353" d="M369.188,582.446H772.82a81.1,81.1,0,0,0-80.994-79.633H450.181A81.1,81.1,0,0,0,369.188,582.446Z" transform="translate(86.885 150.625)" fill="#fdbd10"/>
    <circle id="Ellipse_44" data-name="Ellipse 44" cx="81.006" cy="81.006" r="81.006" transform="translate(327 562.821)" fill="#3f3d56"/>
    <circle id="Ellipse_45" data-name="Ellipse 45" cx="81.006" cy="81.006" r="81.006" transform="translate(818.527 562.821)" fill="#3f3d56"/>
    <path id="Path_354" data-name="Path 354" d="M751.551,534.392v30.2H377.413v-30.2H293.662V681.614a34.011,34.011,0,0,0,34.011,34.011H801.291A34.011,34.011,0,0,0,835.3,681.614V534.392Z" transform="translate(86.885 150.625)" fill="#3f3d56"/>
    <circle id="Ellipse_46" data-name="Ellipse 46" cx="16.476" cy="16.476" r="16.476" transform="translate(391.53 627.351)" fill="#515068" opacity="0.2"/>
    <circle id="Ellipse_47" data-name="Ellipse 47" cx="16.476" cy="16.476" r="16.476" transform="translate(883.057 627.351)" fill="#515068" opacity="0.2"/>
    <path id="Path_377" data-name="Path 377" d="M644.333,419.953l-35.971-35.211H445.144v-101h214v101H643.986ZM447.144,382.742H609.177l33.108,32.408-.319-32.408h15.178v-97h-210Z" transform="translate(-135.67 41.258)" fill="#fdbd10"/>
    <g id="girl-sitting" transform="translate(-2792 1135)">
      <circle id="Ellipse_41" data-name="Ellipse 41" cx="18.035" cy="18.035" r="18.035" transform="translate(3248 -642.727)" fill="#2f2e41"/>
      <path id="Path_303" data-name="Path 303" d="M83.411,486.51l-9.084-8.83-18.241,5.666,1.752,21.121,37.506-1.742L83.822,487.069Z" transform="translate(3247.998 -1057.661)" fill="#fbbebe"/>
      <circle id="Ellipse_42" data-name="Ellipse 42" cx="29.158" cy="29.158" r="29.158" transform="translate(3282.384 -629.648)" fill="#fbbebe"/>
      <path id="Path_304" data-name="Path 304" d="M402.592,617.061s35.821,61.559,44.346,70.8a154.758,154.758,0,0,0,12.935,12.892s-4.008,13.293-10.391,12.819a30.039,30.039,0,0,1-10.529-2.595s-2.849-7.385-7.818-10.624-45.568-43.18-44.619-55.946S402.592,617.061,402.592,617.061Z" transform="translate(3089.963 -1150.788)" fill="#2f2e41"/>
      <path id="Path_305" data-name="Path 305" d="M275.023,704.908s38.193,29.644,90.1,1.789l4.473-3.292s-7.549,16.982-8.249,21.586c-.812,5.338-20.466,36.61-23.673,38.108s-3.914,2.88-3.914,2.88l13.61,14.981,5.032-3.7s19.622-27.8,25.361-32.886,33.082-57.531,33.082-57.531,10.454-19.761-15.636-21.247-38.1,5.625-38.1,5.625l-46.3,7.356Z" transform="translate(3089.963 -1150.788)" fill="#2f2e41"/>
      <path id="Path_306" data-name="Path 306" d="M460.316,697.841l19.318,13.366s24.646,7.722,9.464,12.86-55.188,7-56.1-.092,1.578-18.249,3.574-17.638S452.425,710.544,460.316,697.841Z" transform="translate(3089.963 -1150.788)" fill="#2f2e41"/>
      <path id="Path_307" data-name="Path 307" d="M354.111,772.666l3.576,19.635s10.167,19.444-2.04,13.411S318.289,776.762,322,771.958s11.911-10.015,12.743-8.449S341.739,775.556,354.111,772.666Z" transform="translate(3089.963 -1150.788)" fill="#2f2e41"/>
      <path id="Path_308" data-name="Path 308" d="M317.275,685.019s-25.963,30.312-41.725,22.949S195.3,615.32,202.664,599.558,212.5,587.15,212.5,587.15l33.3,3.079-9.58-15.361s4.473-3.292,8.736,1.329,21.375,16.162,27.337,32.462,23.464,15.487,23.464,15.487Z" transform="translate(3089.963 -1150.788)" fill="#fff"/>
      <path id="Path_309" data-name="Path 309" d="M264.085,529.388l-45,47.773-40.316-71.18,38.327-46.307Z" transform="translate(3247.998 -1057.661)" fill="#3f3d56"/>
      <path id="Path_310" data-name="Path 310" d="M260.688,528.871,220.04,570.852,183.206,506.16l33.78-42.529Z" transform="translate(3247.998 -1057.661)" fill="#fff"/>
      <path id="Path_311" data-name="Path 311" d="M216.875,575.336l2.205,1.825-1.414,2.764-62.931,18.73-.6-2.156L157,593.538Z" transform="translate(3247.998 -1057.661)" fill="#b3b3b3"/>
      <path id="Path_312" data-name="Path 312" d="M219.639,576.75l-65.167,20.375-39.725-75.063,64.017-16.081Z" transform="translate(3247.998 -1057.661)" fill="#d0cde1"/>
      <path id="Path_313" data-name="Path 313" d="M214.733,566.569l-2.8,2.057-31.03-53.878,3.207-1.5Z" transform="translate(3247.998 -1057.661)" fill="#3f3d56"/>
      <path id="Path_314" data-name="Path 314" d="M208.318,569.565l-27.567,8.22-31.294-55.408,27.272-6.278Z" transform="translate(3247.998 -1057.661)" fill="#3f3d56"/>
      <path id="Path_315" data-name="Path 315" d="M288.692,621.582l5.708-1.614s31.83-3.6,32.294,6.4-36.567,5.361-36.567,5.361l-4.938-6.71Z" transform="translate(3089.963 -1150.788)" fill="#fbbebe"/>
      <path id="Path_316" data-name="Path 316" d="M316.61,666.546l7.944-3.26s23.98-10.752,17.1-17.757-28.095,5.16-28.095,5.16L309.5,654.54Z" transform="translate(3089.963 -1150.788)" fill="#fbbebe"/>
      <path id="Path_317" data-name="Path 317" d="M309.53,651.069s12.935,12.892,9.992,15.92-51.209,42.857-63.173,30.113-70.257-76.728-47.575-82.215,28.676,7.342,28.676,7.342l29.944,51.23Z" transform="translate(3089.963 -1150.788)" fill="#fff"/>
      <path id="Path_318" data-name="Path 318" d="M112.763,518.781l21.248,7.205-.347,15.34L111.192,538.9Z" transform="translate(3247.998 -1057.661)" fill="#fff"/>
      <path id="Path_319" data-name="Path 319" d="M131.914,565.887l-22.893,13.4L82.865,539.06,108.113,572.2Z" transform="translate(3247.998 -1057.661)" opacity="0.2"/>
      <circle id="Ellipse_43" data-name="Ellipse 43" cx="34.712" cy="34.712" r="34.712" transform="translate(3264.032 -643.654)" fill="#2f2e41"/>
      <path id="Path_320" data-name="Path 320" d="M238.3,532.417l-24.305-35.555,10.3-12.754,25.255,36.58Z" transform="translate(3247.998 -1057.661)" fill="#fdbd10"/>
      <path id="Path_321" data-name="Path 321" d="M237.615,546.712l-37-53.793,1.825-2.205,36.829,53.92Z" transform="translate(3247.998 -1057.661)" fill="#e6e6e6"/>
      <path id="Path_322" data-name="Path 322" d="M232.847,551.945l-37-53.793,1.825-2.205L234.5,549.868Z" transform="translate(3247.998 -1057.661)" fill="#e6e6e6"/>
      <path id="Path_323" data-name="Path 323" d="M228.785,555.8l-37-53.793,1.825-2.2,36.829,53.921Z" transform="translate(3247.998 -1057.661)" fill="#e6e6e6"/>
      <path id="Path_324" data-name="Path 324" d="M66.117,425.544H76.855a20.5,20.5,0,0,1,20.5,20.5H66.117Z" transform="translate(3247.998 -1057.661)" fill="#2f2e41"/>
      <g id="small-logo-in-bag" transform="translate(1252.453 -1127.117) rotate(22)">
        <g id="Group_12" data-name="Group 12" transform="translate(2249.489 -323.19)">
          <rect id="Rectangle_45" data-name="Rectangle 45" width="0.638" height="10.135" transform="matrix(0.836, -0.548, 0.548, 0.836, 2.439, 3.645)" fill="#e6e6e6"/>
          <path id="Path_135" data-name="Path 135" d="M1.7.105,2.937,1.988a.164.164,0,0,1-.275.18L1.242,0A1.173,1.173,0,0,0,.678.1L2.225,2.455a.164.164,0,1,1-.275.18L.4.277a1.172,1.172,0,0,0-.31.48l1.42,2.164a.164.164,0,0,1-.275.18L0,1.219A2.911,2.911,0,0,0,.518,2.938C1.215,4,2.353,4.488,3.058,4.025s.713-1.7.015-2.763A2.911,2.911,0,0,0,1.7.105Z" transform="translate(0 0)" fill="#e6e6e6"/>
        </g>
        <g id="Group_14" data-name="Group 14" transform="translate(2253.073 -325)">
          <rect id="Rectangle_46" data-name="Rectangle 46" width="0.635" height="10.157" transform="translate(1.27 3.809)" fill="#e6e6e6"/>
          <ellipse id="Ellipse_26" data-name="Ellipse 26" cx="1.428" cy="2.222" rx="1.428" ry="2.222" fill="#e6e6e6"/>
        </g>
        <path id="Path_136" data-name="Path 136" d="M393.322,608.458a22.489,22.489,0,0,0-7.979,0,.291.291,0,0,1-.343-.286v-3.615h8.665v3.615a.291.291,0,0,1-.343.286Z" transform="translate(1867.146 -919.267)" fill="#f1961e"/>
        <path id="Path_137" data-name="Path 137" d="M328.183,369.472a1.8,1.8,0,0,0-.588.1,3.463,3.463,0,0,0-6.275-.032,1.8,1.8,0,1,0,.235,3.38,3.463,3.463,0,0,0,5.817-.042,1.8,1.8,0,1,0,.811-3.4Z" transform="translate(1931.836 -686.852)" fill="#f1961e"/>
        <path id="Path_138" data-name="Path 138" d="M419.038,471.061H419a3.45,3.45,0,0,1,.334-1.489l.035.017A3.412,3.412,0,0,0,419.038,471.061Z" transform="translate(1833.805 -786.893)" fill="#3f3d56"/>
        <path id="Path_139" data-name="Path 139" d="M761.06,472.675h-.039a3.413,3.413,0,0,0-.315-1.441l.035-.016A3.452,3.452,0,0,1,761.06,472.675Z" transform="translate(1498.707 -788.508)" fill="#3f3d56"/>
        <path id="Path_140" data-name="Path 140" d="M384.768,665.248l-.009-.038a19.175,19.175,0,0,1,2.721-.407,18.72,18.72,0,0,1,5.953.407l-.009.037a18.683,18.683,0,0,0-5.939-.406A19.132,19.132,0,0,0,384.768,665.248Z" transform="translate(1867.383 -978.276)" fill="#3f3d56"/>
        <path id="Path_141" data-name="Path 141" d="M384.768,692.248l-.009-.038a19.175,19.175,0,0,1,2.721-.407,18.718,18.718,0,0,1,5.953.407l-.009.037a18.685,18.685,0,0,0-5.939-.406A19.132,19.132,0,0,0,384.768,692.248Z" transform="translate(1867.383 -1004.754)" fill="#3f3d56"/>
        <path id="Path_142" data-name="Path 142" d="M384.768,719.248l-.009-.038a19.175,19.175,0,0,1,2.721-.407,18.722,18.722,0,0,1,5.953.407l-.009.037a18.685,18.685,0,0,0-5.939-.406A19.143,19.143,0,0,0,384.768,719.248Z" transform="translate(1867.383 -1031.232)" fill="#3f3d56"/>
      </g>
      <text id="Food_Delivery" data-name="Food Delivery" transform="translate(3468.362 -561.538) rotate(55)" fill="#412d18" font-size="5" font-family="FiraCodeiScript-Italic, Fira Code iScript" font-style="italic"><tspan x="0" y="0">Food Delivery</tspan></text>
    </g>
    <g id="bread" transform="translate(-3320 1241)">
      <path id="Path_386" data-name="Path 386" d="M288.312,326.084a9.825,9.825,0,0,0-9.833-9.675H229.1a9.851,9.851,0,0,0-9.824,9.518A9.613,9.613,0,0,0,223,333.652a2.15,2.15,0,0,1,.852,1.968,9.563,9.563,0,0,0-.086,1.28v34.158a9.574,9.574,0,0,0,9.574,9.574h40.58a9.574,9.574,0,0,0,9.574-9.574V336.9a9.635,9.635,0,0,0-.066-1.123,2.077,2.077,0,0,1,.874-1.916A9.619,9.619,0,0,0,288.312,326.084Z" transform="translate(3534.728 -1216.527)" fill="#3f3d56"/>
      <path id="Path_387" data-name="Path 387" d="M287.767,326.736a7.66,7.66,0,0,0-7.665-6.65H230.675a7.678,7.678,0,0,0-7.55,5.947,7.558,7.558,0,0,0,3.613,8.14,2.079,2.079,0,0,1,.973,2.354,7.413,7.413,0,0,0-.263,1.965v34.154a7.491,7.491,0,0,0,6.1,7.36,7.58,7.58,0,0,0,1.388.129h40.58a7.4,7.4,0,0,0,2.026-.279A7.487,7.487,0,0,0,283,372.65V338.49a7.457,7.457,0,0,0-.231-1.844,2.138,2.138,0,0,1-.064-.509,2.082,2.082,0,0,1,1.1-1.837l0,0A7.543,7.543,0,0,0,287.767,326.736Z" transform="translate(3533.135 -1218.117)" fill="#fdbd10"/>
      <path id="Path_388" data-name="Path 388" d="M286.424,341.762v-3.211h-5.459V320.086h-3.211v18.464h-17.18V320.086h-3.211v18.464h-17.18V320.086h-3.211v18.464h-6.1v3.211h6.1V351.4h-6.1v3.211h6.1v9.634h-6.1v3.211h6.1v12.556a7.583,7.583,0,0,0,1.387.128h1.824V367.452h17.18v12.684h3.211V367.452h17.18v12.684h1.185a7.4,7.4,0,0,0,2.026-.279v-12.4h5.459v-3.211h-5.459v-9.633h5.459V351.4h-5.459v-9.634Zm-46.241,0h17.18V351.4h-17.18Zm0,22.478v-9.633h17.18v9.634Zm37.571,0h-17.18v-9.633h17.18Zm0-12.845h-17.18v-9.634h17.18Z" transform="translate(3529.713 -1218.117)" opacity="0.2"/>
    </g>
    <g id="chicken" transform="translate(-3988 1229)">
      <path id="Path_408" data-name="Path 408" d="M259.672,514.305l-25.76-2.667a8.178,8.178,0,1,0-14.081,4.4,8.182,8.182,0,1,0,13.99,3.782l25.851-2.376Z" transform="translate(4089.728 -1373.811)" fill="#ccc"/>
      <path id="Path_409" data-name="Path 409" d="M298.242,530.726c10.127,2.49,20.328-4.693,20.856-15.108q.022-.433.022-.872t-.022-.872c-.528-10.415-10.73-17.6-20.856-15.108l-34.355,8.448a7.532,7.532,0,1,0,0,15.064Z" transform="translate(4077.354 -1372.527)" fill="#fdbd10"/>
    </g>
  </g>
</svg>
