<svg width="559" height="261" viewBox="0 0 559 261" fill="none" xmlns="http://www.w3.org/2000/svg">
<path d="M338.239 211.353L338.423 211.353C344.715 211.406 350.877 209.555 356.106 206.04C361.334 202.526 365.385 197.512 367.731 191.652C372.555 179.413 374.987 166.355 374.892 153.193C374.564 97.4839 329.403 51.7807 273.898 51.0101C250.259 50.678 227.233 58.5597 208.723 73.3192C190.213 88.0787 177.358 108.808 172.337 131.993C167.317 155.177 170.439 179.391 181.175 200.53C191.911 221.668 209.601 238.43 231.245 247.975C236.964 250.516 243.316 251.264 249.466 250.119C255.617 248.974 261.279 245.991 265.71 241.561C275.215 231.971 286.518 224.365 298.966 219.181C311.414 213.996 324.761 211.336 338.239 211.353Z" fill="#E6E6E6"/>
<path d="M285.582 180.592C303.958 180.592 318.855 165.302 318.855 146.442C318.855 127.582 303.958 112.293 285.582 112.293C267.205 112.293 252.308 127.582 252.308 146.442C252.308 165.302 267.205 180.592 285.582 180.592Z" fill="#F9A825"/>
<path d="M212.03 143.816C213.964 143.816 215.532 141.855 215.532 139.437C215.532 137.02 213.964 135.059 212.03 135.059C210.095 135.059 208.527 137.02 208.527 139.437C208.527 141.855 210.095 143.816 212.03 143.816Z" fill="#3F3D56"/>
<path d="M233.044 101.786C234.979 101.786 236.547 99.8257 236.547 97.4078C236.547 94.9898 234.979 93.0297 233.044 93.0297C231.11 93.0297 229.542 94.9898 229.542 97.4078C229.542 99.8257 231.11 101.786 233.044 101.786Z" fill="#3F3D56"/>
<path d="M233.044 217.368C234.979 217.368 236.547 215.407 236.547 212.989C236.547 210.572 234.979 208.611 233.044 208.611C231.11 208.611 229.542 210.572 229.542 212.989C229.542 215.407 231.11 217.368 233.044 217.368Z" fill="#3F3D56"/>
<path d="M311.85 93.0297C313.784 93.0297 315.353 91.4616 315.353 89.5273C315.353 87.5929 313.784 86.0248 311.85 86.0248C309.916 86.0248 308.348 87.5929 308.348 89.5273C308.348 91.4616 309.916 93.0297 311.85 93.0297Z" fill="#3F3D56"/>
<path d="M161.585 36.9299L164.446 35.4934L124.635 35.21L93.0086 63.7583L70.7099 115.758L67.192 163.572C73.3114 168.451 86.0454 175.077 96.3404 177.946L113.978 179.139L105.34 171.68L122.788 164.143L119.591 152.729L115.093 135.416L126.341 137.807L134.289 129.273L122.008 114.905L138.967 107.264L144.928 100.864L143.553 92.9041L157.621 89.249L157.011 58.4492L166.873 45.7214L161.585 36.9299Z" fill="#DBDBDB"/>
<path d="M85.8689 159.874L65.621 163.749C32.768 147.565 22.6859 117.607 16.2764 100.099C12.3541 51.2153 42.521 27.9956 79.213 20.4435C103.395 15.4663 128.555 19.1746 142.915 23.7605C150.557 24.3651 158.566 31.0925 161.616 34.3806L153.302 32.6133L155.374 39.699L140.236 50.7942L144.985 71.7392L120.042 66.4375L117.614 97.1027L98.7595 99.2291L101.148 128.874L80.515 132.155L85.8689 159.874Z" fill="#F4F4F4"/>
<path d="M396.819 45.9299L393.958 44.4934L433.769 44.21L465.396 72.7583L487.695 124.758L491.213 172.572C485.093 177.451 472.359 184.077 462.064 186.946L444.427 188.139L453.065 180.68L435.616 173.143L438.813 161.729L443.312 144.416L432.063 146.807L424.115 138.273L436.396 123.905L419.437 116.264L413.476 109.864L414.851 101.904L400.784 98.249L401.394 67.4492L391.532 54.7214L396.819 45.9299Z" fill="#DBDBDB"/>
<path d="M472.536 168.874L492.783 172.749C525.637 156.565 535.719 126.607 542.128 109.099C546.05 60.2153 515.884 36.9956 479.192 29.4435C455.01 24.4663 429.849 28.1746 415.489 32.7605C407.848 33.3651 399.838 40.0925 396.789 43.3806L405.103 41.6133L403.031 48.699L418.169 59.7942L413.419 80.7392L438.362 75.4375L440.791 106.103L459.645 108.229L457.256 137.874L477.89 141.155L472.536 168.874Z" fill="#F4F4F4"/>
<ellipse cx="89.5" cy="253.5" rx="48.5" ry="7.5" fill="#F3F1F1"/>
<ellipse cx="450.5" cy="250.5" rx="48.5" ry="7.5" fill="#F3F1F1"/>
<path d="M80.9178 47.2954C82.7399 47.5051 84.492 48.0021 86.1741 48.7865C87.8562 49.5709 90.0149 50.7055 92.6503 52.1904C89.1936 57.6821 85.7616 64.0812 82.3545 71.3879C78.9473 78.6945 76.7553 83.464 75.7784 85.6963C78.5047 86.7116 80.1675 87.263 80.7667 87.3504C80.5357 88.3946 80.1506 89.495 79.6114 90.6514C79.0721 91.8079 78.2735 92.9714 77.2157 94.142C76.3431 93.5431 75.0113 92.7621 73.2206 91.7991C70.689 97.9141 69.3639 101.648 69.2452 103C67.2654 102.717 65.5396 102.232 64.0677 101.546C62.5959 100.86 61.4377 100.256 60.5931 99.7339C62.7539 96.1978 64.8447 92.469 66.8653 88.5476C65.2602 87.7351 61.5403 85.9685 55.7055 83.2477C49.8707 80.5269 45.513 78.6869 42.6326 77.7276C42.6955 77.181 43.0578 76.198 43.7196 74.7788C44.9668 73.8884 47.2841 72.2812 50.6717 69.9571C54.1364 67.6049 56.4538 65.9977 57.6238 65.1354C58.8464 64.2976 60.7557 62.9481 63.3515 61.0867C66.0244 59.1973 68.1106 57.6743 69.6099 56.5175C74.185 53.0193 77.9543 49.9452 80.9178 47.2954ZM53.559 75.9111C55.5319 76.8952 57.8063 77.9877 60.382 79.1888C62.9578 80.3899 66.0048 81.7467 69.5232 83.2594C70.4091 81.4967 72.4454 77.1985 75.6319 70.3649C78.843 63.4788 81.1575 57.9665 82.5753 53.828C76.7038 57.3616 67.0317 64.7227 53.559 75.9111Z" fill="#DBDBDB"/>
<path d="M478.908 58.5588C480.261 57.3212 481.786 56.3249 483.482 55.57C485.177 54.8151 487.45 53.9303 490.299 52.9155C492.176 59.1272 494.754 65.9155 498.033 73.2805C501.312 80.6455 503.474 85.4289 504.517 87.6307C507.072 86.2393 508.579 85.3461 509.038 84.9512C509.675 85.8106 510.253 86.8231 510.772 87.9888C511.291 89.1545 511.645 90.5205 511.834 92.0869C510.81 92.3526 509.347 92.8452 507.445 93.565C510.399 99.4874 512.348 102.937 513.291 103.914C511.778 105.222 510.28 106.207 508.797 106.867C507.313 107.528 506.097 108.006 505.149 108.301C503.898 104.35 502.456 100.326 500.822 96.2282C499.156 96.9065 495.382 98.555 489.5 101.174C483.619 103.792 479.372 105.874 476.758 107.418C476.387 107.012 475.882 106.094 475.245 104.663C475.392 103.138 475.699 100.335 476.167 96.2532C476.665 92.0952 476.973 89.2918 477.09 87.843C477.259 86.3707 477.493 84.0444 477.792 80.8641C478.119 77.6073 478.338 75.0336 478.449 73.1432C478.81 67.3953 478.963 62.5338 478.908 58.5588ZM482.555 97.9803C484.592 97.1369 486.909 96.1372 489.505 94.9812C492.102 93.8253 495.125 92.4158 498.575 90.7529C497.825 88.9278 495.917 84.5712 492.851 77.683C489.76 70.7419 487.119 65.3787 484.925 61.5935C483.74 68.3431 482.95 80.4721 482.555 97.9803Z" fill="#DBDBDB"/>
</svg>
